<svg width="193" height="392" viewBox="0 0 193 392" fill="none" xmlns="http://www.w3.org/2000/svg">
<path d="M161.74 391.75L28.8201 391.14C21.1462 391.093 13.804 388.005 8.40203 382.555C3.00006 377.104 -0.0212054 369.734 0.000112047 362.06L1.41012 28.8301C1.45508 21.1527 4.54263 13.8065 9.99578 8.40206C15.4489 2.99765 22.8226 -0.0238171 30.5001 0.000141402L163.42 0.610138C171.091 0.657732 178.43 3.74232 183.831 9.18869C189.233 14.6351 192.256 21.9996 192.24 29.6701L190.83 362.9C190.79 370.581 187.705 377.932 182.251 383.341C176.798 388.75 169.421 391.774 161.74 391.75Z" fill="#455A64"/>
<path d="M163.23 12.1101L137.46 11.9901C135.763 12.0217 134.149 12.7247 132.97 13.945C131.79 15.1654 131.143 16.8034 131.17 18.5001V23.1801C131.183 24.0201 131.031 24.8545 130.721 25.6355C130.412 26.4165 129.951 27.1287 129.366 27.7315C128.781 28.3344 128.082 28.8159 127.311 29.1485C126.54 29.4811 125.71 29.6584 124.87 29.6701L74.6301 29.4401C72.9343 29.3904 71.3271 28.6714 70.1597 27.4404C68.9924 26.2093 68.3597 24.5662 68.4001 22.8701V18.1901C68.4298 16.5052 67.7949 14.8764 66.6326 13.6562C65.4704 12.4359 63.8744 11.7224 62.1901 11.6701H53.1301L30.5801 11.5001C25.2032 11.4735 20.0358 13.5833 16.2141 17.3657C12.3924 21.148 10.2292 26.2933 10.2001 31.6701L8.8301 356.93C8.80617 362.307 10.9185 367.473 14.7027 371.293C18.4869 375.113 23.6332 377.274 29.0101 377.3L161.67 377.91C164.333 377.922 166.973 377.409 169.438 376.401C171.903 375.393 174.145 373.909 176.037 372.034C177.928 370.159 179.432 367.93 180.462 365.474C181.492 363.018 182.028 360.383 182.04 357.72L183.41 32.4701C183.422 29.8082 182.909 27.1701 181.902 24.7062C180.894 22.2424 179.411 20.0013 177.537 18.1107C175.663 16.22 173.435 14.717 170.98 13.6875C168.526 12.6579 165.892 12.1219 163.23 12.1101Z" fill="#FAFAFA"/>
<path d="M10.0401 70.7202H31.7801L51.1801 90.1302L31.0101 110.3L10.2701 89.5502L10.0401 70.7202Z" fill="#EBEBEB"/>
<path d="M55.6101 81.6102L44.7101 70.7202H69.2301L55.6101 81.6102Z" fill="#EBEBEB"/>
<path d="M65.1401 90.5102L84.2301 71.4202H150.93C150.93 71.4202 161.14 117.02 120.93 146.3L65.1401 90.5102Z" fill="#EBEBEB"/>
<path d="M56.9701 96.5901L36.5501 117.02L93.0601 173.53L113.48 152.42L56.9701 96.5901Z" fill="#EBEBEB"/>
<path d="M9.7901 128.6L22.5901 115.32L10.0401 102.77L9.7901 128.6Z" fill="#EBEBEB"/>
<path d="M30.2501 123.15L10.5901 142.81V170.13L51.1801 211.66L85.5701 179.66L30.2501 123.15Z" fill="#EBEBEB"/>
<path d="M128.58 152.03C128.58 152.03 170.7 121.15 157.08 71.4202H183.27L182.95 211.78L128.58 152.03Z" fill="#EBEBEB"/>
<path d="M120.66 160.13L100.3 181.39L162.74 243.84L181.84 223.6L120.66 160.13Z" fill="#EBEBEB"/>
<path d="M91.7901 187.21L59.7801 218.99L123.8 282.56L155.75 251.67L91.7901 187.21Z" fill="#EBEBEB"/>
<path d="M75.0101 346.44L123.95 295.72L170.5 343.17L75.0101 346.44Z" fill="#EBEBEB"/>
<path d="M131.58 289.17L182.58 238.67C182.58 240.91 182.14 343.38 182.14 343.38L131.58 289.17Z" fill="#EBEBEB"/>
<path d="M87.9501 260.81L116.86 289.72L59.7801 348.62L33.4101 316.99L87.9501 260.81Z" fill="#EBEBEB"/>
<path d="M9.84009 321.09C12.5701 320.82 82.4801 255.35 82.4801 255.35L9.84009 180.08V321.09Z" fill="#EBEBEB"/>
<path d="M8.83008 336.01L25.6601 321.09L48.9701 348.62H8.83008V338.09" fill="#EBEBEB"/>
<path d="M30.5801 50.9002C28.8014 49.5878 27.1295 48.1366 25.5801 46.5602C25.5801 45.8002 25.5801 46.3502 25.5801 46.1802L25.6501 46.1201L25.7701 46.0101L26.0201 45.7802L26.5001 45.3302L27.4101 44.4902L28.9801 43.0901C29.4556 42.6043 29.9936 42.184 30.5801 41.8401C30.2233 42.3839 29.7925 42.8753 29.3001 43.3001L27.8001 44.7802L26.9101 45.6402L26.4301 46.1002L26.1901 46.3302L26.0601 46.4401L26.0001 46.5002V46.1201C27.6488 47.5919 29.1801 49.1901 30.5801 50.9002Z" fill="#263238"/>
<path d="M168.83 43.2701C168.832 43.4865 168.77 43.6986 168.651 43.8794C168.532 44.0602 168.361 44.2014 168.162 44.2852C167.962 44.3689 167.742 44.3913 167.53 44.3496C167.318 44.3079 167.122 44.2039 166.969 44.0508C166.816 43.8978 166.712 43.7026 166.671 43.4903C166.629 43.2779 166.651 43.0579 166.735 42.8583C166.819 42.6588 166.96 42.4886 167.141 42.3696C167.322 42.2506 167.534 42.1881 167.75 42.1901C168.037 42.1901 168.311 42.3039 168.514 42.5064C168.716 42.709 168.83 42.9837 168.83 43.2701Z" fill="#263238"/>
<path d="M168.52 46.2402C168.673 46.3925 168.777 46.5867 168.819 46.7982C168.861 47.0097 168.84 47.229 168.757 47.4283C168.675 47.6276 168.535 47.798 168.356 47.9178C168.177 48.0377 167.966 48.1017 167.75 48.1017C167.534 48.1017 167.324 48.0377 167.144 47.9178C166.965 47.798 166.825 47.6276 166.743 47.4283C166.66 47.229 166.639 47.0097 166.681 46.7982C166.723 46.5867 166.827 46.3925 166.98 46.2402C167.186 46.0386 167.462 45.9257 167.75 45.9257C168.038 45.9257 168.315 46.0386 168.52 46.2402Z" fill="#263238"/>
<path d="M168.83 50.7401C168.804 51.0099 168.679 51.2604 168.478 51.4426C168.277 51.6249 168.016 51.7258 167.745 51.7258C167.474 51.7258 167.213 51.6249 167.012 51.4426C166.812 51.2604 166.686 51.0099 166.66 50.7401C166.646 50.5889 166.663 50.4363 166.711 50.2921C166.759 50.1479 166.836 50.0153 166.938 49.9029C167.04 49.7904 167.165 49.7006 167.304 49.6391C167.443 49.5776 167.593 49.5458 167.745 49.5458C167.897 49.5458 168.047 49.5776 168.186 49.6391C168.325 49.7006 168.45 49.7904 168.552 49.9029C168.654 50.0153 168.732 50.1479 168.779 50.2921C168.827 50.4363 168.845 50.5889 168.83 50.7401Z" fill="#263238"/>
<path d="M121.97 47.7001H75.1901V51.6001H121.97V47.7001Z" fill="#263238"/>
<path d="M116.88 117.67C116.88 99.4501 97.7401 87.9101 78.2201 97.0401C73.8033 99.1033 70.19 102.565 67.9401 106.89C63.0301 116.4 65.2001 127.26 69.6501 136.28L84.8501 174.79C85.3301 176.017 86.169 177.071 87.2572 177.814C88.3455 178.557 89.6325 178.954 90.9501 178.954C92.2677 178.954 93.5548 178.557 94.643 177.814C95.7313 177.071 96.5701 176.017 97.0501 174.79L111.94 136.08C117.1 124.28 116.88 117.67 116.88 117.67ZM98.5801 133.57C85.4601 141.2 72.1601 127.1 79.3501 113.18C80.2975 111.344 81.7427 109.813 83.5201 108.76C96.6501 101.13 109.95 115.23 102.75 129.15C101.807 130.989 100.361 132.521 98.5801 133.57Z" fill="#FF610A"/>
</svg>
