<svg width="383" height="383" viewBox="0 0 383 383" fill="none" xmlns="http://www.w3.org/2000/svg">
<path d="M187.379 340.717C272.484 340.717 341.475 300.883 341.475 251.746C341.475 202.609 272.484 162.775 187.379 162.775C102.274 162.775 33.2827 202.609 33.2827 251.746C33.2827 300.883 102.274 340.717 187.379 340.717Z" fill="#F5F5F5"/>
<path d="M241.581 350.974L359.729 282.761C362.318 281.268 362.318 278.847 359.729 277.353L142.553 152.511C141.1 151.774 139.494 151.391 137.865 151.391C136.236 151.391 134.63 151.774 133.177 152.511L15.0289 220.685C12.4398 222.217 12.4398 224.607 15.0289 226.1L232.213 350.958C233.663 351.697 235.267 352.083 236.895 352.086C238.523 352.088 240.128 351.707 241.581 350.974Z" fill="#E0E0E0"/>
<path d="M330.912 355.914C330.414 355.904 329.925 355.771 329.491 355.527C329.056 355.282 328.689 354.934 328.422 354.513L308.874 327.082C308.519 326.653 308.294 326.132 308.226 325.579C308.158 325.027 308.25 324.466 308.491 323.964C308.729 323.519 309.087 323.149 309.524 322.896C309.961 322.643 310.46 322.517 310.965 322.532C311.267 322.535 311.568 322.571 311.862 322.639L360.64 334.236C362.984 334.796 363.03 336.45 362.992 336.94C362.954 337.431 362.624 339.055 360.219 339.238L336.121 340.77L333.7 353.356C333.622 354.048 333.296 354.688 332.782 355.157C332.267 355.626 331.6 355.892 330.904 355.907L330.912 355.914Z" fill="#E0E0E0"/>
<path d="M240.884 82.4293C240.857 82.2073 240.771 81.9964 240.637 81.8177C240.503 81.6389 240.324 81.4985 240.118 81.4105C239.553 81.1232 238.929 80.9735 238.295 80.9735C237.661 80.9735 237.037 81.1232 236.472 81.4105C236.268 81.5004 236.09 81.6413 235.956 81.8197C235.822 81.9981 235.736 82.208 235.706 82.4293V200.523H240.861V82.4293H240.884Z" fill="#37474F"/>
<path d="M240.884 82.4293C240.884 81.6633 239.735 80.9739 238.31 80.9739C236.886 80.9739 235.737 81.625 235.737 82.4293C235.737 83.2336 236.886 83.8923 238.31 83.8923C239.735 83.8923 240.884 83.2336 240.884 82.4293Z" fill="#455A64"/>
<path d="M253.109 108.335L219.482 88.9097L214.426 91.8281L219.482 100.584L253.109 120.017V108.335Z" fill="#FF610A"/>
<g opacity="0.4">
<path opacity="0.4" d="M253.109 108.335L219.482 88.9097L214.426 91.8281L219.482 100.584L253.109 120.017V108.335Z" fill="black"/>
</g>
<path d="M219.482 88.9096L222.01 87.4465L255.683 106.903L253.109 108.335L219.482 88.9096Z" fill="#FF610A"/>
<g opacity="0.3">
<path opacity="0.3" d="M219.482 88.9096L222.01 87.4465L255.683 106.903L253.109 108.335L219.482 88.9096Z" fill="black"/>
</g>
<path d="M255.683 118.584L253.109 120.017V108.335L255.683 106.903V118.584Z" fill="#FF610A"/>
<path opacity="0.55" d="M255.683 118.584L253.109 120.017V108.335L255.683 106.903V118.584Z" fill="black"/>
<path d="M239.378 109.27C239.329 109.242 239.288 109.201 239.254 109.148C239.225 109.091 239.211 109.035 239.211 108.979V105.005C239.211 104.949 239.225 104.91 239.254 104.888C239.288 104.869 239.329 104.873 239.378 104.901L239.711 105.096C239.76 105.125 239.801 105.168 239.835 105.227C239.868 105.286 239.885 105.344 239.885 105.4V105.769C240.084 105.504 240.422 105.512 240.901 105.792L241.184 105.957C241.232 105.985 241.271 106.028 241.3 106.084C241.334 106.137 241.351 106.192 241.351 106.248V106.592C241.351 106.648 241.334 106.683 241.3 106.697C241.271 106.714 241.232 106.708 241.184 106.68L240.749 106.425C240.487 106.273 240.282 106.242 240.132 106.334C239.982 106.42 239.907 106.614 239.907 106.916V109.386C239.907 109.442 239.89 109.48 239.856 109.5C239.823 109.513 239.781 109.506 239.733 109.478L239.378 109.27ZM243.598 111.821C243.018 111.482 242.561 111.033 242.227 110.474C241.894 109.915 241.72 109.284 241.705 108.581V108.287C241.724 107.637 241.901 107.225 242.235 107.05C242.573 106.873 243.025 106.95 243.591 107.28C244.002 107.521 244.348 107.821 244.628 108.181C244.913 108.538 245.126 108.926 245.266 109.344C245.411 109.764 245.484 110.193 245.484 110.63V110.832C245.484 110.888 245.467 110.928 245.433 110.953C245.399 110.973 245.356 110.967 245.303 110.936L242.982 109.579V109.638C242.991 109.907 243.047 110.152 243.148 110.374C243.25 110.596 243.397 110.763 243.591 110.876C243.712 110.947 243.811 110.977 243.888 110.966C243.966 110.95 244.036 110.918 244.099 110.871C244.142 110.834 244.176 110.818 244.2 110.821C244.229 110.821 244.273 110.838 244.331 110.872L245.23 111.398C245.274 111.423 245.31 111.461 245.339 111.512C245.373 111.559 245.39 111.609 245.39 111.659C245.39 111.805 245.317 111.93 245.172 112.036C245.032 112.144 244.826 112.189 244.556 112.171C244.285 112.153 243.966 112.036 243.598 111.821ZM244.207 109.464V109.447C244.207 109.173 244.152 108.924 244.041 108.703C243.934 108.478 243.784 108.309 243.591 108.196C243.402 108.086 243.252 108.079 243.141 108.177C243.035 108.271 242.982 108.456 242.982 108.73V108.747L244.207 109.464ZM247.781 114.267C247.283 113.976 246.884 113.566 246.585 113.038C246.29 112.507 246.128 111.925 246.099 111.292L246.091 111.002L246.099 110.729C246.133 110.144 246.297 109.758 246.592 109.572C246.892 109.389 247.286 109.44 247.774 109.726C248.311 110.04 248.727 110.482 249.022 111.052C249.317 111.616 249.464 112.235 249.464 112.907V113.05C249.464 113.106 249.447 113.143 249.413 113.163C249.384 113.179 249.346 113.174 249.297 113.145L246.788 111.678V111.754C246.802 112.126 246.897 112.492 247.071 112.852C247.25 113.208 247.484 113.471 247.774 113.641C247.997 113.771 248.178 113.827 248.318 113.808C248.463 113.786 248.57 113.739 248.637 113.667C248.681 113.625 248.712 113.604 248.732 113.604C248.756 113.602 248.797 113.617 248.855 113.651L249.21 113.859C249.254 113.884 249.29 113.92 249.319 113.965C249.348 114.01 249.363 114.057 249.363 114.108C249.363 114.231 249.295 114.34 249.159 114.434C249.029 114.531 248.843 114.574 248.601 114.561C248.364 114.546 248.091 114.448 247.781 114.267ZM248.775 112.26V112.235C248.775 111.849 248.683 111.481 248.499 111.133C248.321 110.782 248.079 110.517 247.774 110.339C247.47 110.161 247.228 110.143 247.049 110.285C246.875 110.424 246.788 110.687 246.788 111.073V111.098L248.775 112.26ZM241.031 120.237C240.03 119.652 239.53 118.807 239.53 117.704V116.091L238.964 115.76C238.911 115.729 238.865 115.683 238.826 115.621C238.793 115.562 238.776 115.501 238.776 115.44V114.759C238.776 114.698 238.793 114.657 238.826 114.638C238.865 114.621 238.911 114.628 238.964 114.66L239.53 114.99V113.604C239.53 113.542 239.547 113.502 239.581 113.482C239.619 113.466 239.663 113.472 239.711 113.5L240.553 113.992C240.606 114.023 240.649 114.068 240.683 114.127C240.717 114.186 240.734 114.246 240.734 114.308V115.694L241.641 116.224C241.694 116.255 241.737 116.3 241.771 116.359C241.81 116.421 241.829 116.483 241.829 116.544V117.225C241.829 117.287 241.81 117.326 241.771 117.342C241.737 117.362 241.694 117.356 241.641 117.325L240.734 116.795V118.29C240.734 118.705 240.872 118.993 241.147 119.154L241.706 119.48C241.759 119.511 241.803 119.556 241.836 119.615C241.87 119.674 241.887 119.735 241.887 119.796V120.527C241.887 120.583 241.87 120.624 241.836 120.649C241.803 120.668 241.759 120.662 241.706 120.631L241.031 120.237Z" fill="white"/>
<path d="M336.404 259.008L332.291 255.461C332.291 255.461 332.452 242.776 336.159 232.573C341.383 218.226 352.452 215.085 355.83 217.253C359.208 219.421 359.208 223.986 350.935 231.255C346.048 235.56 338.955 245.25 336.404 259.008Z" fill="#FF610A"/>
<g opacity="0.15">
<path opacity="0.15" d="M336.404 259.008L332.291 255.461C332.291 255.461 332.452 242.776 336.159 232.573C341.383 218.226 352.452 215.085 355.83 217.253C359.208 219.421 359.208 223.986 350.935 231.255C346.048 235.56 338.955 245.25 336.404 259.008Z" fill="black"/>
</g>
<path d="M335.876 252.78H335.922C335.966 252.782 336.01 252.775 336.052 252.76C336.094 252.745 336.132 252.722 336.165 252.692C336.197 252.662 336.224 252.626 336.243 252.586C336.261 252.546 336.272 252.503 336.274 252.458C337.04 238.234 345.589 224.116 353.034 219.229C353.071 219.206 353.103 219.175 353.128 219.14C353.153 219.104 353.171 219.063 353.18 219.02C353.19 218.978 353.19 218.933 353.182 218.89C353.174 218.847 353.158 218.806 353.134 218.77C353.084 218.696 353.007 218.644 352.92 218.626C352.833 218.607 352.742 218.623 352.666 218.67C345.075 223.657 336.397 237.981 335.6 252.42C335.593 252.504 335.617 252.587 335.668 252.653C335.719 252.72 335.793 252.765 335.876 252.78Z" fill="white"/>
<path d="M348.53 268.943C349.181 269.502 350.874 268.874 351.525 268.598C352.649 268.121 353.629 267.357 354.367 266.384C355.204 265.279 355.675 263.94 355.715 262.554C355.738 261.823 355.707 261.09 355.623 260.363L355.439 258.219C355.33 257.517 355.364 256.8 355.539 256.112C355.983 254.764 357.408 254.029 358.687 253.408C360.112 252.719 361.636 251.746 361.958 250.076C362.126 248.765 361.857 247.435 361.192 246.292C360.587 245.12 359.813 244.04 359.3 242.837C358.872 241.982 358.753 241.005 358.963 240.072C359.147 239.506 359.447 238.984 359.844 238.54C360.725 237.636 361.532 236.663 362.257 235.629C362.595 235.105 362.78 234.496 362.791 233.872C362.802 233.248 362.638 232.634 362.318 232.098C361.97 231.714 361.549 231.404 361.079 231.185C360.61 230.967 360.101 230.845 359.583 230.826C358.612 230.756 357.636 230.899 356.726 231.248C353.785 232.205 351.655 235.078 348.622 235.637C347.437 235.77 346.245 235.826 345.052 235.805C344.455 235.802 343.863 235.923 343.314 236.16C342.766 236.397 342.272 236.746 341.866 237.184C340.433 239.046 341.866 241.964 340.701 244.017C339.675 245.832 337.637 246.208 336.251 247.747C335.668 248.435 335.322 249.292 335.263 250.191C335.065 251.692 335.146 253.216 335.5 254.687C335.923 256.166 336.459 257.61 337.101 259.008C337.163 259.061 348.438 268.866 348.53 268.943Z" fill="#FF610A"/>
<path d="M341.797 263.504C341.841 263.512 341.885 263.511 341.929 263.501C341.972 263.491 342.013 263.473 342.05 263.447C342.086 263.422 342.117 263.389 342.14 263.352C342.164 263.314 342.18 263.272 342.187 263.228C344.194 249.999 353.195 236.725 358.511 233.393C358.584 233.344 358.636 233.269 358.656 233.184C358.675 233.099 358.662 233.009 358.618 232.933C358.595 232.895 358.564 232.862 358.528 232.836C358.491 232.81 358.45 232.792 358.407 232.782C358.363 232.772 358.318 232.771 358.275 232.778C358.231 232.786 358.189 232.802 358.151 232.826C352.728 236.219 343.559 249.716 341.521 263.121C341.508 263.208 341.529 263.297 341.581 263.369C341.632 263.44 341.71 263.489 341.797 263.504Z" fill="white"/>
<path d="M346.784 248.352H346.883C350.156 248.101 353.446 248.207 356.696 248.667C356.785 248.68 356.876 248.658 356.949 248.605C357.022 248.552 357.071 248.472 357.086 248.383C357.094 248.339 357.092 248.294 357.082 248.251C357.072 248.208 357.053 248.167 357.026 248.131C357 248.095 356.966 248.065 356.928 248.043C356.89 248.02 356.847 248.006 356.803 248C353.492 247.531 350.14 247.423 346.807 247.678C346.727 247.691 346.654 247.731 346.602 247.792C346.549 247.853 346.52 247.931 346.52 248.012C346.52 248.092 346.549 248.17 346.602 248.231C346.654 248.292 346.727 248.333 346.807 248.345L346.784 248.352Z" fill="white"/>
<path d="M121.625 105.179L117.795 107.393C117.807 107.225 117.807 107.056 117.795 106.888V105.777C117.795 103.801 116.409 103.004 114.731 103.992C113.997 104.443 113.367 105.047 112.885 105.762C112.61 103.28 110.656 102.353 108.289 103.724C106.947 104.606 105.831 105.791 105.033 107.185C104.234 108.578 103.775 110.14 103.693 111.744V113.368C103.679 114.03 103.812 114.687 104.084 115.291L100.905 117.129C100.408 117.457 99.9936 117.896 99.6957 118.412C99.3979 118.928 99.2245 119.506 99.1893 120.101C99.1893 121.196 99.9553 121.633 100.905 121.097L121.656 109.117C122.154 108.789 122.568 108.349 122.866 107.834C123.163 107.318 123.337 106.739 123.372 106.145C123.326 105.08 122.56 104.636 121.625 105.179Z" fill="#EBEBEB"/>
<path d="M137.535 115.045L134.724 116.669C134.731 116.544 134.731 116.419 134.724 116.294V115.482C134.724 114.034 133.705 113.445 132.426 114.172C131.887 114.503 131.427 114.948 131.078 115.474C130.871 113.651 129.446 112.977 127.708 113.942C126.719 114.587 125.897 115.456 125.308 116.478C124.718 117.5 124.378 118.647 124.314 119.825V121.043C124.301 121.528 124.397 122.01 124.598 122.453L122.3 123.801C121.933 124.038 121.628 124.359 121.409 124.737C121.191 125.115 121.065 125.54 121.043 125.976C121.043 126.781 121.603 127.102 122.3 126.704L137.535 117.964C137.902 117.727 138.207 117.406 138.426 117.028C138.644 116.649 138.769 116.225 138.792 115.788C138.792 114.969 138.232 114.647 137.535 115.045Z" fill="#EBEBEB"/>
<path d="M349.357 261.865C350.989 263.129 350.813 264.929 348.836 266.055L240.685 328.499C239.465 329.114 238.118 329.435 236.751 329.435C235.385 329.435 234.038 329.114 232.818 328.499L26.1359 209.164C24.129 208.007 23.9681 206.192 25.6686 204.936C24.6575 205.701 23.8249 206.677 23.2284 207.796C22.6318 208.915 22.2857 210.15 22.214 211.416V216.617C22.2846 217.984 22.6783 219.314 23.3627 220.499C24.0471 221.684 25.0028 222.69 26.1512 223.434L232.803 342.785C234.023 343.405 235.372 343.728 236.74 343.728C238.108 343.728 239.457 343.405 240.677 342.785L348.829 280.356C349.974 279.611 350.928 278.606 351.611 277.422C352.293 276.239 352.687 274.911 352.758 273.546V268.337C352.689 267.078 352.349 265.848 351.762 264.731C351.176 263.614 350.355 262.636 349.357 261.865Z" fill="#455A64"/>
<path d="M348.836 261.52L142.147 142.185C140.926 141.571 139.579 141.252 138.213 141.252C136.847 141.252 135.5 141.571 134.28 142.185L26.1359 204.629C23.9605 205.878 23.9605 207.915 26.1359 209.164L232.818 328.499C234.038 329.114 235.385 329.435 236.751 329.435C238.118 329.435 239.465 329.114 240.685 328.499L348.836 266.055C351.004 264.806 351.004 262.738 348.836 261.52Z" fill="#37474F"/>
<path d="M25.6686 204.936C24.6575 205.701 23.8249 206.677 23.2284 207.796C22.6318 208.915 22.2857 210.15 22.214 211.416V216.617C22.2858 217.983 22.68 219.313 23.3643 220.498C24.0486 221.683 25.0036 222.689 26.1512 223.434L232.803 342.785C234.016 343.43 235.374 343.754 236.748 343.727V329.434C235.377 329.46 234.023 329.138 232.81 328.499L26.1359 209.164C24.129 208.007 23.9681 206.192 25.6686 204.936Z" fill="#263238"/>
<path d="M79.0053 184.315C80.1083 183.679 80.1083 182.645 79.0053 182.017C78.3866 181.7 77.7013 181.534 77.006 181.534C76.3107 181.534 75.6254 181.7 75.0067 182.017C73.896 182.653 73.896 183.687 75.0067 184.315C75.6265 184.629 76.3114 184.792 77.006 184.792C77.7006 184.792 78.3855 184.629 79.0053 184.315Z" fill="black"/>
<path d="M84.4132 180.822L99.8481 171.913C100.775 171.385 100.821 170.542 99.9554 170.044C99.4492 169.801 98.8932 169.68 98.3318 169.691C97.7704 169.701 97.2194 169.844 96.7228 170.106L81.2879 179.022C80.3687 179.55 80.3228 180.385 81.1807 180.883C81.6863 181.128 82.2426 181.25 82.8043 181.24C83.366 181.229 83.9172 181.086 84.4132 180.822Z" fill="black"/>
<path d="M149.148 151.76C147.294 150.688 145.318 151.308 143.495 152.388L42.3828 210.711C40.5214 211.784 40.5138 213.523 42.3828 214.603L225.832 320.54C226.878 321.069 228.034 321.345 229.206 321.345C230.379 321.345 231.535 321.069 232.581 320.54L333.693 262.209C335.562 261.137 335.554 259.391 333.693 258.318L149.148 151.76Z" fill="#FF610A"/>
<path opacity="0.96" d="M149.148 151.76C147.294 150.688 145.318 151.308 143.495 152.388L42.3828 210.711C40.5214 211.784 40.5138 213.523 42.3828 214.603L225.832 320.54C226.878 321.069 228.034 321.345 229.206 321.345C230.379 321.345 231.535 321.069 232.581 320.54L333.693 262.209C335.562 261.137 335.554 259.391 333.693 258.318L149.148 151.76Z" fill="white"/>
<g opacity="0.4">
<path opacity="0.4" d="M229.233 318.825L267.334 296.84L260.938 294.994C250.918 292.104 240.418 291.265 230.066 292.527C219.715 293.79 209.724 297.127 200.692 302.34L229.233 318.825Z" fill="#FF610A"/>
<path opacity="0.4" d="M273.883 293.049L330.774 260.202L292.696 238.226L270.229 291.999L273.883 293.049Z" fill="#FF610A"/>
<path opacity="0.4" d="M286.354 234.557L264.14 290.237C251.01 286.07 239.229 285.435 225.74 287.756L247.188 234.948L278.349 229.938L286.354 234.557Z" fill="#FF610A"/>
<path opacity="0.4" d="M215.912 289.893L223.695 270.743L163.235 263.573L153.085 274.864L195.215 299.192C201.675 295.195 208.634 292.068 215.912 289.893Z" fill="#FF610A"/>
<path opacity="0.4" d="M254.741 216.326L273.661 227.226L248.682 231.263L254.741 216.326Z" fill="#FF610A"/>
<path opacity="0.4" d="M134.042 225.618C137.761 225.618 140.775 223.879 140.775 221.734C140.775 219.589 137.761 217.85 134.042 217.85C130.324 217.85 127.309 219.589 127.309 221.734C127.309 223.879 130.324 225.618 134.042 225.618Z" fill="#FF610A"/>
<path opacity="0.4" d="M237.805 235.323L144.284 224.239C143.296 226.491 141.61 226.996 137.681 227.854L163.771 257.728L225.97 265.036L237.805 235.323Z" fill="#FF610A"/>
<path opacity="0.4" d="M193.369 207.103L186.475 223.764L144.008 218.724C142.986 217.674 141.739 216.87 140.362 216.372L146.191 201.512L193.369 207.103Z" fill="#FF610A"/>
<path opacity="0.4" d="M247.487 212.121L240.187 230.129L193.614 224.607L200.929 206.598L247.487 212.121Z" fill="#FF610A"/>
<path opacity="0.4" d="M238.755 207.073L161.611 162.538L148.252 196.341L238.755 207.073Z" fill="#FF610A"/>
<path opacity="0.4" d="M128.397 227.326L156.884 259.904L146.735 271.164L91.6672 239.375L125.624 226.047C126.494 226.581 127.425 227.011 128.397 227.326Z" fill="#FF610A"/>
<path opacity="0.4" d="M141.978 195.598L156.256 159.443L146.735 153.951L86.0831 188.965L141.978 195.598Z" fill="#FF610A"/>
<path opacity="0.4" d="M77.9635 193.568L45.194 212.573L86.4431 236.388L122.828 222.048C122.751 220.302 123.594 218.624 126.26 217.061C128.451 215.798 131.185 215.323 134.211 215.254L139.887 200.769L77.9635 193.568Z" fill="#FF610A"/>
</g>
<path d="M151.431 194.365V183.02L168.949 185.096V196.433L151.431 194.365Z" fill="#FF610A"/>
<path d="M168.949 185.096L172.557 174.993V187.501L168.949 196.433V185.096Z" fill="#FF610A"/>
<path d="M172.557 174.993L155.414 172.924L151.431 183.02L168.949 185.096L172.557 174.993Z" fill="#FF610A"/>
<path opacity="0.8" d="M151.431 194.365V183.02L168.949 185.096V196.433L151.431 194.365Z" fill="white"/>
<path opacity="0.75" d="M168.949 185.096L172.557 174.993V187.501L168.949 196.433V185.096Z" fill="white"/>
<path opacity="0.9" d="M172.557 174.993L155.414 172.924L151.431 183.02L168.949 185.096L172.557 174.993Z" fill="white"/>
<path d="M162.913 218.586V213.507L180.439 215.575V220.662L162.913 218.586Z" fill="#FF610A"/>
<path d="M180.439 215.575L183.564 206.82V213.071L180.439 220.662V215.575Z" fill="#FF610A"/>
<path d="M183.564 206.82L166.413 204.752L162.913 213.507L180.439 215.575L183.564 206.82Z" fill="#FF610A"/>
<path opacity="0.8" d="M162.913 218.586V213.507L180.439 215.575V220.662L162.913 218.586Z" fill="white"/>
<path opacity="0.75" d="M180.439 215.575L183.564 206.82V213.071L180.439 220.662V215.575Z" fill="white"/>
<path opacity="0.9" d="M183.564 206.82L166.413 204.752L162.913 213.507L180.439 215.575L183.564 206.82Z" fill="white"/>
<path d="M196.655 285.465V274.128L214.174 276.197V287.541L196.655 285.465Z" fill="#FF610A"/>
<path d="M214.174 276.197L217.789 266.101V278.609L214.174 287.541V276.197Z" fill="#FF610A"/>
<path d="M217.789 266.101L200.646 264.032L196.655 274.128L214.174 276.197L217.789 266.101Z" fill="#FF610A"/>
<path opacity="0.8" d="M196.655 285.465V274.128L214.174 276.197V287.541L196.655 285.465Z" fill="white"/>
<path opacity="0.75" d="M214.174 276.197L217.789 266.101V278.609L214.174 287.541V276.197Z" fill="white"/>
<path opacity="0.9" d="M217.789 266.101L200.646 264.032L196.655 274.128L214.174 276.197L217.789 266.101Z" fill="white"/>
<path d="M196.356 199.466V195.292L205.227 196.341V200.516L196.356 199.466Z" fill="#FF610A"/>
<path d="M205.227 196.341L207.05 191.224V195.996L205.227 200.516V196.341Z" fill="#FF610A"/>
<path d="M207.05 191.224L198.371 190.182L196.356 195.292L205.227 196.341L207.05 191.224Z" fill="#FF610A"/>
<path opacity="0.8" d="M196.356 199.466V195.292L205.227 196.341V200.516L196.356 199.466Z" fill="white"/>
<path opacity="0.75" d="M205.227 196.341L207.05 191.224V195.996L205.227 200.516V196.341Z" fill="white"/>
<path opacity="0.9" d="M207.05 191.224L198.371 190.182L196.356 195.292L205.227 196.341L207.05 191.224Z" fill="white"/>
<path d="M131.721 179.765V173.683L144.621 175.207V181.289L131.721 179.765Z" fill="#FF610A"/>
<path d="M144.621 175.207L147.279 167.777V174.717L144.621 181.289V175.207Z" fill="#FF610A"/>
<path d="M147.279 167.777L134.655 166.253L131.721 173.683L144.621 175.207L147.279 167.777Z" fill="#FF610A"/>
<path opacity="0.8" d="M131.721 179.765V173.683L144.621 175.207V181.289L131.721 179.765Z" fill="white"/>
<path opacity="0.75" d="M144.621 175.207L147.279 167.777V174.717L144.621 181.289V175.207Z" fill="white"/>
<path opacity="0.9" d="M147.279 167.777L134.655 166.253L131.721 173.683L144.621 175.207L147.279 167.777Z" fill="white"/>
<path d="M197.896 223.136V217.72L209.401 219.076V224.499L197.896 223.136Z" fill="#FF610A"/>
<path d="M209.401 219.076L211.768 212.45V218.639L209.401 224.499V219.076Z" fill="#FF610A"/>
<path d="M211.768 212.45L200.516 211.094L197.896 217.72L209.401 219.076L211.768 212.45Z" fill="#FF610A"/>
<path opacity="0.8" d="M197.896 223.136V217.72L209.401 219.076V224.499L197.896 223.136Z" fill="white"/>
<path opacity="0.75" d="M209.401 219.076L211.768 212.45V218.639L209.401 224.499V219.076Z" fill="white"/>
<path opacity="0.9" d="M211.768 212.45L200.516 211.094L197.896 217.72L209.401 219.076L211.768 212.45Z" fill="white"/>
<path d="M145.716 216.671V211.094L157.551 212.488V218.072L145.716 216.671Z" fill="#FF610A"/>
<path d="M157.551 212.488L159.987 205.671V212.036L157.551 218.072V212.488Z" fill="#FF610A"/>
<path d="M159.987 205.671L148.413 204.277L145.716 211.094L157.551 212.488L159.987 205.671Z" fill="#FF610A"/>
<path opacity="0.8" d="M145.716 216.671V211.094L157.551 212.488V218.072L145.716 216.671Z" fill="white"/>
<path opacity="0.75" d="M157.551 212.488L159.987 205.671V212.036L157.551 218.072V212.488Z" fill="white"/>
<path opacity="0.9" d="M159.987 205.671L148.413 204.277L145.716 211.094L157.551 212.488L159.987 205.671Z" fill="white"/>
<path d="M212.779 224.852V219.428L224.285 220.792V226.215L212.779 224.852Z" fill="#FF610A"/>
<path d="M224.285 220.792L226.652 214.166V220.348L224.285 226.215V220.792Z" fill="#FF610A"/>
<path d="M226.652 214.166L215.399 212.802L212.779 219.428L224.285 220.792L226.652 214.166Z" fill="#FF610A"/>
<path opacity="0.8" d="M212.779 224.852V219.428L224.285 220.792V226.215L212.779 224.852Z" fill="white"/>
<path opacity="0.75" d="M224.285 220.792L226.652 214.166V220.348L224.285 226.215V220.792Z" fill="white"/>
<path opacity="0.9" d="M226.652 214.166L215.399 212.802L212.779 219.428L224.285 220.792L226.652 214.166Z" fill="white"/>
<path d="M227.663 226.567V221.144L239.161 222.508V227.923L227.663 226.567Z" fill="#FF610A"/>
<path d="M239.161 222.508L241.535 215.874V222.063L239.161 227.923V222.508Z" fill="#FF610A"/>
<path d="M241.535 215.874L230.283 214.518L227.663 221.144L239.161 222.508L241.535 215.874Z" fill="#FF610A"/>
<path opacity="0.8" d="M227.663 226.567V221.144L239.161 222.508V227.923L227.663 226.567Z" fill="white"/>
<path opacity="0.75" d="M239.161 222.508L241.535 215.874V222.063L239.161 227.923V222.508Z" fill="white"/>
<path opacity="0.9" d="M241.535 215.874L230.283 214.518L227.663 221.144L239.161 222.508L241.535 215.874Z" fill="white"/>
<path d="M90.0127 208.482V203.059L101.518 204.422V209.846L90.0127 208.482Z" fill="#FF610A"/>
<path d="M101.518 204.422L103.885 197.797V203.978L101.518 209.846V204.422Z" fill="#FF610A"/>
<path d="M103.885 197.796L92.6324 196.433L90.0127 203.059L101.518 204.422L103.885 197.796Z" fill="#FF610A"/>
<path opacity="0.8" d="M90.0127 208.482V203.059L101.518 204.422V209.846L90.0127 208.482Z" fill="white"/>
<path opacity="0.75" d="M101.518 204.422L103.885 197.797V203.978L101.518 209.846V204.422Z" fill="white"/>
<path opacity="0.9" d="M103.885 197.796L92.6324 196.433L90.0127 203.059L101.518 204.422L103.885 197.796Z" fill="white"/>
<path d="M104.896 210.198V204.775L116.401 206.138V211.554L104.896 210.198Z" fill="#FF610A"/>
<path d="M116.401 206.138L118.768 199.505V205.694L116.401 211.554V206.138Z" fill="#FF610A"/>
<path d="M118.768 199.505L107.516 198.149L104.896 204.775L116.401 206.138L118.768 199.505Z" fill="#FF610A"/>
<path opacity="0.8" d="M104.896 210.198V204.775L116.401 206.138V211.554L104.896 210.198Z" fill="white"/>
<path opacity="0.75" d="M116.401 206.138L118.768 199.505V205.694L116.401 211.554V206.138Z" fill="white"/>
<path opacity="0.9" d="M118.768 199.505L107.516 198.149L104.896 204.775L116.401 206.138L118.768 199.505Z" fill="white"/>
<path d="M119.779 211.906V206.491L131.277 207.854V213.27L119.779 211.906Z" fill="#FF610A"/>
<path d="M131.277 207.854L133.652 201.22V207.41L131.277 213.27V207.854Z" fill="#FF610A"/>
<path d="M133.652 201.221L122.391 199.865L119.779 206.491L131.277 207.854L133.652 201.221Z" fill="#FF610A"/>
<path opacity="0.8" d="M119.779 211.906V206.491L131.277 207.854V213.27L119.779 211.906Z" fill="white"/>
<path opacity="0.75" d="M131.277 207.854L133.652 201.22V207.41L131.277 213.27V207.854Z" fill="white"/>
<path opacity="0.9" d="M133.652 201.221L122.391 199.865L119.779 206.491L131.277 207.854L133.652 201.221Z" fill="white"/>
<path d="M268.292 191.086V187.861L278.043 189.01V192.235L268.292 191.086Z" fill="#FF610A"/>
<path opacity="0.8" d="M268.292 191.086V187.861L278.043 189.01V192.235L268.292 191.086Z" fill="white"/>
<path d="M278.043 189.01L279.467 184.828V188.75L278.043 192.235V189.01Z" fill="#FF610A"/>
<path opacity="0.75" d="M278.043 189.01L279.467 184.828V188.75L278.043 192.235V189.01Z" fill="white"/>
<path d="M279.467 184.828L269.938 183.687L268.292 187.861L278.043 189.01L279.467 184.828Z" fill="#FF610A"/>
<path opacity="0.9" d="M279.467 184.828L269.938 183.687L268.292 187.861L278.043 189.01L279.467 184.828Z" fill="white"/>
<path d="M199.152 259.314V253.891L210.658 255.254V260.677L199.152 259.314Z" fill="#FF610A"/>
<path d="M210.658 255.254L213.025 248.621V254.81L210.658 260.677V255.254Z" fill="#FF610A"/>
<path d="M213.025 248.621L201.772 247.265L199.152 253.891L210.658 255.254L213.025 248.621Z" fill="#FF610A"/>
<path opacity="0.8" d="M199.152 259.314V253.891L210.658 255.254V260.677L199.152 259.314Z" fill="white"/>
<path opacity="0.75" d="M210.658 255.254L213.025 248.621V254.81L210.658 260.677V255.254Z" fill="white"/>
<path opacity="0.9" d="M213.025 248.621L201.772 247.265L199.152 253.891L210.658 255.254L213.025 248.621Z" fill="white"/>
<path d="M213.507 261.022V255.606L225.013 256.962V262.386L213.507 261.022Z" fill="#FF610A"/>
<path d="M225.013 256.962L227.387 250.336V256.518L225.013 262.386V256.962Z" fill="#FF610A"/>
<path d="M227.387 250.336L216.127 248.981L213.507 255.606L225.013 256.962L227.387 250.336Z" fill="#FF610A"/>
<path opacity="0.8" d="M213.507 261.022V255.606L225.013 256.962V262.386L213.507 261.022Z" fill="white"/>
<path opacity="0.75" d="M225.013 256.962L227.387 250.336V256.518L225.013 262.386V256.962Z" fill="white"/>
<path opacity="0.9" d="M227.387 250.336L216.127 248.981L213.507 255.606L225.013 256.962L227.387 250.336Z" fill="white"/>
<path d="M162.813 277.476V272.06L174.319 273.416V278.839L162.813 277.476Z" fill="#FF610A"/>
<path d="M174.319 273.416L176.686 266.79V272.979L174.319 278.839V273.416Z" fill="#FF610A"/>
<path d="M176.686 266.79L165.433 265.427L162.813 272.06L174.319 273.416L176.686 266.79Z" fill="#FF610A"/>
<path opacity="0.8" d="M162.813 277.476V272.06L174.319 273.416V278.839L162.813 277.476Z" fill="white"/>
<path opacity="0.75" d="M174.319 273.416L176.686 266.79V272.979L174.319 278.839V273.416Z" fill="white"/>
<path opacity="0.9" d="M176.686 266.79L165.433 265.427L162.813 272.06L174.319 273.416L176.686 266.79Z" fill="white"/>
<path d="M177.168 279.192V273.768L188.673 275.132V280.547L177.168 279.192Z" fill="#FF610A"/>
<path d="M188.673 275.132L191.048 268.498V274.688L188.673 280.547V275.132Z" fill="#FF610A"/>
<path d="M191.048 268.498L179.788 267.142L177.168 273.768L188.673 275.132L191.048 268.498Z" fill="#FF610A"/>
<path opacity="0.8" d="M177.168 279.192V273.768L188.673 275.132V280.547L177.168 279.192Z" fill="white"/>
<path opacity="0.75" d="M188.673 275.132L191.048 268.498V274.688L188.673 280.547V275.132Z" fill="white"/>
<path opacity="0.9" d="M191.048 268.498L179.788 267.142L177.168 273.768L188.673 275.132L191.048 268.498Z" fill="white"/>
<path d="M264.462 251.746V246.323L275.959 247.686V253.102L264.462 251.746Z" fill="#FF610A"/>
<path d="M275.959 247.686L278.334 241.052V247.242L275.959 253.102V247.686Z" fill="#FF610A"/>
<path d="M278.334 241.052L267.074 239.697L264.462 246.323L275.959 247.686L278.334 241.052Z" fill="#FF610A"/>
<path opacity="0.8" d="M264.462 251.746V246.323L275.959 247.686V253.102L264.462 251.746Z" fill="white"/>
<path opacity="0.75" d="M275.959 247.686L278.334 241.052V247.242L275.959 253.102V247.686Z" fill="white"/>
<path opacity="0.9" d="M278.334 241.052L267.074 239.697L264.462 246.323L275.959 247.686L278.334 241.052Z" fill="white"/>
<path d="M259.95 262.914V257.491L271.447 258.854V264.278L259.95 262.914Z" fill="#FF610A"/>
<path d="M271.447 258.854L273.822 252.221V258.41L271.447 264.278V258.854Z" fill="#FF610A"/>
<path d="M273.822 252.221L262.562 250.865L259.95 257.491L271.447 258.854L273.822 252.221Z" fill="#FF610A"/>
<path opacity="0.8" d="M259.95 262.914V257.491L271.447 258.854V264.278L259.95 262.914Z" fill="white"/>
<path opacity="0.75" d="M271.447 258.854L273.822 252.221V258.41L271.447 264.278V258.854Z" fill="white"/>
<path opacity="0.9" d="M273.822 252.221L262.562 250.865L259.95 257.491L271.447 258.854L273.822 252.221Z" fill="white"/>
<path d="M255.43 274.082V268.659L266.936 270.023V275.446L255.43 274.082Z" fill="#FF610A"/>
<path d="M266.936 270.023L269.31 263.389V269.578L266.936 275.446V270.023Z" fill="#FF610A"/>
<path d="M269.31 263.389L258.05 262.033L255.43 268.659L266.936 270.023L269.31 263.389Z" fill="#FF610A"/>
<path opacity="0.8" d="M255.43 274.082V268.659L266.936 270.023V275.446L255.43 274.082Z" fill="white"/>
<path opacity="0.75" d="M266.936 270.023L269.31 263.389V269.578L266.936 275.446V270.023Z" fill="white"/>
<path opacity="0.9" d="M269.31 263.389L258.05 262.033L255.43 268.659L266.936 270.023L269.31 263.389Z" fill="white"/>
<path d="M250.919 285.251V279.835L262.424 281.191V286.614L250.919 285.251Z" fill="#FF610A"/>
<path d="M262.424 281.191L264.799 274.565V280.747L262.424 286.614V281.191Z" fill="#FF610A"/>
<path d="M264.799 274.565L253.538 273.202L250.919 279.835L262.424 281.191L264.799 274.565Z" fill="#FF610A"/>
<path opacity="0.8" d="M250.919 285.251V279.835L262.424 281.191V286.614L250.919 285.251Z" fill="white"/>
<path opacity="0.75" d="M262.424 281.191L264.799 274.565V280.747L262.424 286.614V281.191Z" fill="white"/>
<path opacity="0.9" d="M264.799 274.565L253.538 273.202L250.919 279.835L262.424 281.191L264.799 274.565Z" fill="white"/>
<path d="M244.929 249.471V244.055L256.434 245.411V250.834L244.929 249.471Z" fill="#FF610A"/>
<path d="M256.434 245.411L258.808 238.785V244.967L256.434 250.834V245.411Z" fill="#FF610A"/>
<path d="M258.808 238.785L247.548 237.422L244.929 244.055L256.434 245.411L258.808 238.785Z" fill="#FF610A"/>
<path opacity="0.8" d="M244.929 249.471V244.055L256.434 245.411V250.834L244.929 249.471Z" fill="white"/>
<path opacity="0.75" d="M256.434 245.411L258.808 238.785V244.967L256.434 250.834V245.411Z" fill="white"/>
<path opacity="0.9" d="M258.808 238.785L247.548 237.422L244.929 244.055L256.434 245.411L258.808 238.785Z" fill="white"/>
<path d="M240.417 260.639V255.224L251.922 256.579V262.003L240.417 260.639Z" fill="#FF610A"/>
<path d="M251.922 256.579L254.297 249.953V256.143L251.922 262.003V256.579Z" fill="#FF610A"/>
<path d="M254.297 249.953L243.036 248.598L240.417 255.224L251.922 256.579L254.297 249.953Z" fill="#FF610A"/>
<path opacity="0.8" d="M240.417 260.639V255.224L251.922 256.579V262.003L240.417 260.639Z" fill="white"/>
<path opacity="0.75" d="M251.922 256.579L254.297 249.953V256.143L251.922 262.003V256.579Z" fill="white"/>
<path opacity="0.9" d="M254.297 249.953L243.036 248.598L240.417 255.224L251.922 256.579L254.297 249.953Z" fill="white"/>
<path d="M235.905 271.815V266.392L247.41 267.755V273.171L235.905 271.815Z" fill="#FF610A"/>
<path d="M247.41 267.755L249.785 261.122V267.311L247.41 273.171V267.755Z" fill="#FF610A"/>
<path d="M249.785 261.122L238.525 259.766L235.905 266.392L247.41 267.755L249.785 261.122Z" fill="#FF610A"/>
<path opacity="0.8" d="M235.905 271.815V266.392L247.41 267.755V273.171L235.905 271.815Z" fill="white"/>
<path opacity="0.75" d="M247.41 267.755L249.785 261.122V267.311L247.41 273.171V267.755Z" fill="white"/>
<path opacity="0.9" d="M249.785 261.122L238.525 259.766L235.905 266.392L247.41 267.755L249.785 261.122Z" fill="white"/>
<path d="M231.393 282.983V277.56L242.899 278.924V284.339L231.393 282.983Z" fill="#FF610A"/>
<path d="M242.899 278.924L245.273 272.29V278.479L242.899 284.339V278.924Z" fill="#FF610A"/>
<path d="M245.273 272.29L234.013 270.934L231.393 277.56L242.899 278.924L245.273 272.29Z" fill="#FF610A"/>
<path opacity="0.8" d="M231.393 282.983V277.56L242.899 278.924V284.339L231.393 282.983Z" fill="white"/>
<path opacity="0.75" d="M242.899 278.924L245.273 272.29V278.479L242.899 284.339V278.924Z" fill="white"/>
<path opacity="0.9" d="M245.273 272.29L234.013 270.934L231.393 277.56L242.899 278.924L245.273 272.29Z" fill="white"/>
<path d="M283.52 269.9V265.641L292.574 266.714V270.972L283.52 269.9Z" fill="#FF610A"/>
<path d="M292.574 266.714L294.435 261.497V266.361L292.574 270.973V266.714Z" fill="#FF610A"/>
<path d="M294.435 261.497L285.58 260.425L283.52 265.641L292.574 266.714L294.435 261.497Z" fill="#FF610A"/>
<path opacity="0.8" d="M283.52 269.9V265.641L292.574 266.714V270.972L283.52 269.9Z" fill="white"/>
<path opacity="0.75" d="M292.574 266.714L294.435 261.497V266.361L292.574 270.973V266.714Z" fill="white"/>
<path opacity="0.9" d="M294.435 261.497L285.58 260.425L283.52 265.641L292.574 266.714L294.435 261.497Z" fill="white"/>
<path d="M279 282.462V278.196L288.047 279.268V283.527L279 282.462Z" fill="#FF610A"/>
<path d="M288.047 279.268L289.916 274.052V278.916L288.047 283.527V279.268Z" fill="#FF610A"/>
<path d="M289.916 274.052L281.061 272.979L279 278.196L288.047 279.268L289.916 274.052Z" fill="#FF610A"/>
<path opacity="0.8" d="M279 282.462V278.196L288.047 279.268V283.527L279 282.462Z" fill="white"/>
<path opacity="0.75" d="M288.047 279.268L289.916 274.052V278.916L288.047 283.527V279.268Z" fill="white"/>
<path opacity="0.9" d="M289.916 274.052L281.061 272.979L279 278.196L288.047 279.268L289.916 274.052Z" fill="white"/>
<path d="M181.833 257.069V236.755L196.096 238.44V258.747L181.833 257.069Z" fill="#FF610A"/>
<path opacity="0.8" d="M181.833 257.069V236.755L196.096 238.44V258.747L181.833 257.069Z" fill="white"/>
<path d="M196.096 238.44L197.942 233.484V254.81L196.096 258.747V238.44Z" fill="#FF610A"/>
<path opacity="0.75" d="M196.096 238.44L197.942 233.484V254.81L196.096 258.747V238.44Z" fill="white"/>
<path d="M197.942 233.484L184.009 231.815L181.833 236.755L196.096 238.44L197.942 233.484Z" fill="#FF610A"/>
<path opacity="0.9" d="M197.942 233.484L184.009 231.815L181.833 236.755L196.096 238.44L197.942 233.484Z" fill="white"/>
<path d="M109.737 188.796V164.774L117.956 165.693V189.707L109.737 188.796Z" fill="#FF610A"/>
<path opacity="0.8" d="M109.737 188.796V164.774L117.956 165.693V189.707L109.737 188.796Z" fill="white"/>
<path d="M117.956 165.693L119.802 160.737V185.77L117.956 189.707V165.693Z" fill="#FF610A"/>
<path opacity="0.75" d="M117.956 165.693L119.802 160.737V185.77L117.956 189.707V165.693Z" fill="white"/>
<path d="M119.802 160.737L111.913 159.833L109.737 164.774L117.956 165.693L119.802 160.737Z" fill="#FF610A"/>
<path opacity="0.9" d="M119.802 160.737L111.913 159.833L109.737 164.774L117.956 165.693L119.802 160.737Z" fill="white"/>
<path d="M118.876 187.953V166.773L123.226 167.241V188.428L118.876 187.953Z" fill="#FF610A"/>
<path opacity="0.8" d="M118.876 187.953V166.773L123.226 167.241V188.428L118.876 187.953Z" fill="white"/>
<path d="M123.226 167.241L123.908 165.073V187.118L123.226 188.428V167.241Z" fill="#FF610A"/>
<path opacity="0.75" d="M123.226 167.241L123.908 165.073V187.118L123.226 188.428V167.241Z" fill="white"/>
<path d="M123.908 165.073L119.833 164.606L118.876 166.773L123.226 167.241L123.908 165.073Z" fill="#FF610A"/>
<path opacity="0.9" d="M123.908 165.073L119.833 164.606L118.876 166.773L123.226 167.241L123.908 165.073Z" fill="white"/>
<path d="M164.782 255.04V234.725L179.045 236.403V256.717L164.782 255.04Z" fill="#FF610A"/>
<path opacity="0.8" d="M164.782 255.04V234.725L179.045 236.403V256.717L164.782 255.04Z" fill="white"/>
<path d="M179.045 236.403L180.899 231.454V252.78L179.045 256.717V236.403Z" fill="#FF610A"/>
<path opacity="0.75" d="M179.045 236.403L180.899 231.454V252.78L179.045 256.717V236.403Z" fill="white"/>
<path d="M180.899 231.455L166.965 229.785L164.782 234.725L179.045 236.403L180.899 231.455Z" fill="#FF610A"/>
<path opacity="0.9" d="M180.899 231.455L166.965 229.785L164.782 234.725L179.045 236.403L180.899 231.455Z" fill="white"/>
<path d="M127.317 191.086V185.004L140.209 186.529V192.611L127.317 191.086Z" fill="#FF610A"/>
<path d="M140.209 186.529L142.874 179.098V186.038L140.209 192.611V186.529Z" fill="#FF610A"/>
<path d="M142.874 179.098L130.251 177.574L127.317 185.004L140.209 186.529L142.874 179.098Z" fill="#FF610A"/>
<path opacity="0.8" d="M127.317 191.086V185.004L140.209 186.529V192.611L127.317 191.086Z" fill="white"/>
<path opacity="0.75" d="M140.209 186.529L142.874 179.098V186.038L140.209 192.611V186.529Z" fill="white"/>
<path opacity="0.9" d="M142.874 179.098L130.251 177.574L127.317 185.004L140.209 186.529L142.874 179.098Z" fill="white"/>
<path d="M116.064 234.664L106.826 239.995L99.4268 235.752L109.14 230.145L116.064 234.664Z" fill="#FF610A"/>
<path opacity="0.9" d="M116.064 234.664L106.826 239.995L99.4268 235.752L109.14 230.145L116.064 234.664Z" fill="white"/>
<path d="M99.4268 240.149V235.752L106.826 239.995V244.415L99.4268 240.149Z" fill="#FF610A"/>
<path opacity="0.8" d="M99.4268 240.149V235.752L106.826 239.995V244.415L99.4268 240.149Z" fill="white"/>
<path d="M116.064 234.664V239.084L106.826 244.415V239.995L116.064 234.664Z" fill="#FF610A"/>
<path opacity="0.75" d="M116.064 234.664V239.084L106.826 244.415V239.995L116.064 234.664Z" fill="white"/>
<path d="M126.39 240.754L117.152 246.085L109.76 241.842L119.473 236.242L126.39 240.754Z" fill="#FF610A"/>
<path opacity="0.9" d="M126.39 240.754L117.152 246.085L109.76 241.842L119.473 236.242L126.39 240.754Z" fill="white"/>
<path d="M109.76 246.238V241.841L117.152 246.085V250.505L109.76 246.238Z" fill="#FF610A"/>
<path opacity="0.8" d="M109.76 246.238V241.841L117.152 246.085V250.505L109.76 246.238Z" fill="white"/>
<path d="M126.39 240.754V245.174L117.152 250.505V246.085L126.39 240.754Z" fill="#FF610A"/>
<path opacity="0.75" d="M126.39 240.754V245.174L117.152 250.505V246.085L126.39 240.754Z" fill="white"/>
<path d="M136.93 246.79L127.692 252.113L120.293 247.878L130.005 242.27L136.93 246.79Z" fill="#FF610A"/>
<path opacity="0.9" d="M136.93 246.79L127.692 252.113L120.293 247.878L130.005 242.27L136.93 246.79Z" fill="white"/>
<path d="M120.293 252.267V247.878L127.692 252.114V256.541L120.293 252.267Z" fill="#FF610A"/>
<path opacity="0.8" d="M120.293 252.267V247.878L127.692 252.114V256.541L120.293 252.267Z" fill="white"/>
<path d="M136.93 246.79V251.21L127.692 256.541V252.113L136.93 246.79Z" fill="#FF610A"/>
<path opacity="0.75" d="M136.93 246.79V251.21L127.692 256.541V252.113L136.93 246.79Z" fill="white"/>
<path d="M151.882 249.509L142.645 254.84L135.245 250.597L144.958 244.997L151.882 249.509Z" fill="#FF610A"/>
<path opacity="0.9" d="M151.882 249.509L142.645 254.84L135.245 250.597L144.958 244.997L151.882 249.509Z" fill="white"/>
<path d="M135.245 261.175V250.597L142.645 254.84V265.45L135.245 261.175Z" fill="#FF610A"/>
<path opacity="0.8" d="M135.245 261.175V250.597L142.645 254.84V265.45L135.245 261.175Z" fill="white"/>
<path d="M151.882 249.509V260.111L142.645 265.45V254.841L151.882 249.509Z" fill="#FF610A"/>
<path opacity="0.75" d="M151.882 249.509V260.111L142.645 265.45V254.841L151.882 249.509Z" fill="white"/>
<path d="M96.6462 224.637L86.6346 228.383L79.235 224.147L89.7292 220.125L96.6462 224.637Z" fill="#FF610A"/>
<path opacity="0.9" d="M96.6462 224.637L86.6346 228.383L79.235 224.147L89.7292 220.125L96.6462 224.637Z" fill="white"/>
<path d="M79.235 228.536V224.147L86.6346 228.383V232.81L79.235 228.536Z" fill="#FF610A"/>
<path opacity="0.8" d="M79.235 228.536V224.147L86.6346 228.383V232.81L79.235 228.536Z" fill="white"/>
<path d="M96.6462 224.637V229.057L86.6346 232.81V228.383L96.6462 224.637Z" fill="#FF610A"/>
<path opacity="0.75" d="M96.6462 224.637V229.057L86.6346 232.81V228.383L96.6462 224.637Z" fill="white"/>
<path d="M112.702 218.509L102.682 222.262L95.2827 218.019L105.777 213.997L112.702 218.509Z" fill="#FF610A"/>
<path opacity="0.9" d="M112.702 218.509L102.682 222.262L95.2827 218.019L105.777 213.997L112.702 218.509Z" fill="white"/>
<path d="M95.2827 222.416V218.019L102.682 222.262V226.682L95.2827 222.416Z" fill="#FF610A"/>
<path opacity="0.8" d="M95.2827 222.416V218.019L102.682 222.262V226.682L95.2827 222.416Z" fill="white"/>
<path d="M112.702 218.509V222.937L102.682 226.682V222.263L112.702 218.509Z" fill="#FF610A"/>
<path opacity="0.75" d="M112.702 218.509V222.937L102.682 226.682V222.263L112.702 218.509Z" fill="white"/>
<path d="M173.484 196.525V190.121L192.205 192.327V198.731L173.484 196.525Z" fill="#FF610A"/>
<path opacity="0.75" d="M173.484 196.525V190.121L192.205 192.327V198.731L173.484 196.525Z" fill="white"/>
<path d="M192.205 192.327L196.157 181.259V188.949L192.205 198.731V192.327Z" fill="#FF610A"/>
<path opacity="0.65" d="M192.205 192.327L196.157 181.259V188.949L192.205 198.731V192.327Z" fill="white"/>
<path d="M196.157 181.259L177.85 179.052L173.484 190.121L192.205 192.327L196.157 181.259Z" fill="#FF610A"/>
<path opacity="0.9" d="M196.157 181.259L177.85 179.052L173.484 190.121L192.205 192.327L196.157 181.259Z" fill="white"/>
<path d="M175.889 188.528V157.29L190.55 159.014V190.251L175.889 188.528Z" fill="#FF610A"/>
<path opacity="0.75" d="M175.889 188.528V157.29L190.55 159.014V190.251L175.889 188.528Z" fill="white"/>
<path d="M190.55 159.014L193.752 150.052V182.323L190.55 190.251V159.014Z" fill="#FF610A"/>
<path opacity="0.65" d="M190.55 159.014L193.752 150.052V182.323L190.55 190.251V159.014Z" fill="white"/>
<path d="M193.752 150.052L179.428 148.328L175.889 157.29L190.55 159.014L193.752 150.052Z" fill="#FF610A"/>
<path opacity="0.9" d="M193.752 150.052L179.428 148.328L175.889 157.29L190.55 159.014L193.752 150.052Z" fill="white"/>
<path d="M180.462 155.276V138.248L188.459 139.19V156.218L180.462 155.276Z" fill="#FF610A"/>
<path opacity="0.75" d="M180.462 155.276V138.248L188.459 139.19V156.218L180.462 155.276Z" fill="white"/>
<path d="M188.459 139.19L190.205 134.303V151.898L188.459 156.218V139.19Z" fill="#FF610A"/>
<path opacity="0.65" d="M188.459 139.19L190.205 134.303V151.898L188.459 156.218V139.19Z" fill="white"/>
<path d="M190.205 134.303L182.385 133.361L180.462 138.248L188.459 139.19L190.205 134.303Z" fill="#FF610A"/>
<path opacity="0.9" d="M190.205 134.303L182.385 133.361L180.462 138.248L188.459 139.19L190.205 134.303Z" fill="white"/>
<path d="M265.25 241.459V192.235L279.919 193.959V243.182L265.25 241.459Z" fill="#FF610A"/>
<path opacity="0.75" d="M265.25 241.459V192.235L279.919 193.959V243.182L265.25 241.459Z" fill="white"/>
<path d="M279.919 193.959L282.064 187.685V237.943L279.919 243.182V193.959Z" fill="#FF610A"/>
<path opacity="0.65" d="M279.919 193.959L282.064 187.685V237.943L279.919 243.182V193.959Z" fill="white"/>
<path d="M282.064 187.685L267.732 185.962L265.25 192.235L279.919 193.959L282.064 187.685Z" fill="#FF610A"/>
<path opacity="0.9" d="M282.064 187.685L267.732 185.962L265.25 192.235L279.919 193.959L282.064 187.685Z" fill="white"/>
<path d="M288.981 257.161V211.584L301.766 213.002V258.586L288.981 257.161Z" fill="#FF610A"/>
<path opacity="0.75" d="M288.981 257.161V211.584L301.766 213.002V258.586L288.981 257.161Z" fill="white"/>
<path d="M301.766 213.002L304.646 205.303V252.458L301.766 258.586V213.002Z" fill="#FF610A"/>
<path opacity="0.65" d="M301.766 213.002L304.646 205.303V252.458L301.766 258.586V213.002Z" fill="white"/>
<path d="M304.646 205.303L292.367 203.886L288.981 211.585L301.766 213.002L304.646 205.303Z" fill="#FF610A"/>
<path opacity="0.9" d="M304.646 205.303L292.367 203.886L288.981 211.585L301.766 213.002L304.646 205.303Z" fill="white"/>
<path d="M303.206 255.859V214.694L309.977 215.422V256.587L303.206 255.859Z" fill="#FF610A"/>
<path opacity="0.75" d="M303.206 255.859V214.694L309.977 215.422V256.587L303.206 255.859Z" fill="white"/>
<path d="M309.977 215.422L311.027 212.044V254.565L309.977 256.587V215.422Z" fill="#FF610A"/>
<path opacity="0.65" d="M309.977 215.422L311.027 212.044V254.565L309.977 256.587V215.422Z" fill="white"/>
<path d="M311.027 212.044L304.692 211.324L303.206 214.694L309.977 215.422L311.027 212.044Z" fill="#FF610A"/>
<path opacity="0.9" d="M311.027 212.044L304.692 211.324L303.206 214.694L309.977 215.422L311.027 212.044Z" fill="white"/>
<path d="M50.962 206.95L69.6371 217.728V223.588L50.962 212.81V206.95Z" fill="#FF610A"/>
<path opacity="0.35" d="M50.962 206.95L69.6371 217.728V223.588L50.962 212.81V206.95Z" fill="black"/>
<path d="M88.3045 212.81V206.95L69.6371 217.728V223.588" fill="#FF610A"/>
<path opacity="0.15" d="M88.3045 206.95L69.6371 217.728V223.588L88.3045 212.81V206.95Z" fill="black"/>
<path d="M88.3045 206.95L69.6371 196.172L50.962 206.95L69.6371 217.728L88.3045 206.95Z" fill="#FF610A"/>
<path opacity="0.5" d="M88.3045 206.95L69.6371 196.172L50.962 206.95L69.6371 217.728L88.3045 206.95Z" fill="black"/>
<path d="M50.962 206.046L69.6371 216.824V215.032L50.962 204.254V206.046Z" fill="#FF610A"/>
<path opacity="0.35" d="M50.962 206.046L69.6371 216.824V215.032L50.962 204.254V206.046Z" fill="black"/>
<path d="M69.6371 216.824L88.3045 206.046V204.254L69.6371 215.032V216.824Z" fill="#FF610A"/>
<path opacity="0.15" d="M69.6371 216.824L88.3045 206.046V204.254L69.6371 215.032V216.824Z" fill="black"/>
<path d="M88.3045 204.254L69.6371 193.476L50.962 204.254L69.6371 215.031L88.3045 204.254Z" fill="#FF610A"/>
<path opacity="0.5" d="M88.3045 204.254L69.6371 193.476L50.962 204.254L69.6371 215.031L88.3045 204.254Z" fill="black"/>
<path d="M50.962 203.151L69.6371 213.928V212.136L50.962 201.358V203.151Z" fill="#FF610A"/>
<path opacity="0.35" d="M50.962 203.151L69.6371 213.928V212.136L50.962 201.358V203.151Z" fill="black"/>
<path d="M69.6371 213.928L88.3045 203.151V201.358L69.6371 212.136V213.928Z" fill="#FF610A"/>
<path opacity="0.15" d="M69.6371 213.928L88.3045 203.151V201.358L69.6371 212.136V213.928Z" fill="black"/>
<path d="M88.3045 201.358L69.6371 190.581L50.962 201.358L69.6371 212.136L88.3045 201.358Z" fill="#FF610A"/>
<path opacity="0.5" d="M88.3045 201.358L69.6371 190.581L50.962 201.358L69.6371 212.136L88.3045 201.358Z" fill="black"/>
<path d="M69.6371 210.114V164.859L54.0796 155.881V201.129L69.6371 210.114Z" fill="#FF610A"/>
<path d="M69.6371 164.859L85.1945 155.881V201.129L69.6371 210.114V164.859Z" fill="#FF610A"/>
<path d="M85.1945 155.881L69.6371 146.896L54.0796 155.881L69.6371 164.858L85.1945 155.881Z" fill="#FF610A"/>
<path opacity="0.4" d="M85.1945 155.881L69.6371 146.896L54.0796 155.881L69.6371 164.858L85.1945 155.881Z" fill="black"/>
<path opacity="0.2" d="M69.6371 210.114V164.859L54.0796 155.881V201.129L69.6371 210.114Z" fill="black"/>
<path d="M69.6371 163.066V124.95L57.1896 117.596V155.881L69.6371 163.066Z" fill="#FF610A"/>
<path d="M69.6371 163.066V124.95L82.0769 117.596V155.881L69.6371 163.066Z" fill="#FF610A"/>
<path d="M82.0769 117.596L69.6371 110.495L57.1896 117.596L69.6371 124.95L82.0769 117.596Z" fill="#FF610A"/>
<path opacity="0.4" d="M82.0769 117.596L69.6371 110.495L57.1896 117.596L69.6371 124.95L82.0769 117.596Z" fill="black"/>
<path opacity="0.2" d="M69.6371 163.066V124.95L57.1896 117.596V155.881L69.6371 163.066Z" fill="black"/>
<path d="M69.6371 122.169V116.784L77.412 112.288V117.68L69.6371 122.169Z" fill="#FF610A"/>
<path d="M61.8545 117.68V112.288L69.6371 116.784V122.169L61.8545 117.68Z" fill="#FF610A"/>
<path opacity="0.2" d="M61.8545 117.68V112.288L69.6371 116.784V122.169L61.8545 117.68Z" fill="black"/>
<path d="M77.4119 112.288L69.6371 107.799L61.8545 112.288L69.6371 116.784L77.4119 112.288Z" fill="#FF610A"/>
<path opacity="0.4" d="M77.4119 112.288L69.6371 107.799L61.8545 112.288L69.6371 116.784L77.4119 112.288Z" fill="black"/>
<path d="M69.6371 114.984V89.8364L74.302 112.288L69.6371 114.984Z" fill="#FF610A"/>
<path opacity="0.1" d="M69.6371 114.984V89.8364L74.302 112.288L69.6371 114.984Z" fill="black"/>
<path d="M64.9108 112.288L69.637 89.8364V114.984L64.9108 112.288Z" fill="#FF610A"/>
<path opacity="0.25" d="M64.9108 112.288L69.637 89.8364V114.984L64.9108 112.288Z" fill="black"/>
<path d="M270.482 295.4C270.422 295.398 270.362 295.385 270.306 295.362C270.206 295.308 259.904 290.138 244.063 289.41C228.222 288.682 220.669 291.708 220.593 291.708C220.522 291.735 220.445 291.742 220.371 291.726C220.297 291.711 220.229 291.674 220.175 291.62C220.121 291.567 220.085 291.499 220.069 291.424C220.053 291.35 220.06 291.273 220.087 291.202L243.381 233.63L188.919 227.28C188.859 227.273 188.802 227.252 188.751 227.219C188.701 227.186 188.659 227.141 188.629 227.089C188.598 227.038 188.58 226.979 188.576 226.919C188.572 226.859 188.582 226.799 188.605 226.744L197.237 205.388L87.0406 192.304C86.9897 192.3 86.9404 192.285 86.8955 192.26C86.8506 192.236 86.8112 192.203 86.7797 192.162C86.7481 192.122 86.7251 192.076 86.712 192.027C86.6989 191.977 86.696 191.926 86.7035 191.875C86.7151 191.773 86.7667 191.679 86.847 191.615C86.9274 191.55 87.03 191.52 87.1325 191.531L197.842 204.698C197.901 204.706 197.957 204.728 198.006 204.761C198.055 204.794 198.096 204.838 198.126 204.89C198.152 204.943 198.166 205.002 198.166 205.062C198.166 205.122 198.152 205.181 198.126 205.234L189.485 226.598L243.948 232.948C244.007 232.955 244.064 232.975 244.114 233.007C244.165 233.039 244.207 233.082 244.239 233.132C244.266 233.187 244.279 233.247 244.279 233.308C244.279 233.369 244.266 233.429 244.239 233.484L221.075 290.712C223.442 289.946 230.834 288.031 244.055 288.636C260.072 289.364 270.513 294.611 270.62 294.665C270.666 294.688 270.706 294.719 270.74 294.758C270.773 294.796 270.798 294.841 270.814 294.89C270.83 294.938 270.835 294.989 270.831 295.04C270.827 295.091 270.812 295.141 270.789 295.186C270.76 295.244 270.716 295.294 270.663 295.332C270.609 295.369 270.547 295.393 270.482 295.4Z" fill="#455A64"/>
<path d="M56.2244 55.3894V53.0914C56.2616 50.146 56.7525 47.2239 57.6798 44.428C60.0467 37.1127 65.0334 30.1114 70.8014 26.81C74.4705 24.6882 77.8179 24.4277 80.384 25.6993L75.3361 22.7961C74.0914 21.9752 72.6294 21.5457 71.1384 21.5629C70.9029 21.5606 70.6675 21.5734 70.4337 21.6012C70.1886 21.6012 69.9435 21.6471 69.6677 21.6854C69.4097 21.7152 69.1539 21.7613 68.9017 21.8233C68.6429 21.8789 68.3873 21.9479 68.1357 22.0301C67.595 22.1893 67.0653 22.3838 66.5501 22.6123C66.282 22.7272 66.0139 22.8651 65.7381 22.9953C65.4624 23.1255 65.1866 23.2864 64.9185 23.4396C56.9138 28.0662 50.3951 39.832 50.3951 49.79V52.088C50.3951 61.9923 63.7159 72.77 63.7159 72.77L69.0779 75.834C68.9836 75.7717 68.8939 75.7026 68.8098 75.6272C64.8649 71.8661 56.2244 63.0111 56.2244 55.3894ZM72.1266 34.5619C72.1735 34.815 72.2042 35.0709 72.2185 35.3279C72.2185 35.4198 72.2185 35.5041 72.2185 35.596C72.2263 35.7465 72.2263 35.8974 72.2185 36.0479C72.2185 40.6899 68.963 46.343 64.9338 48.6639L64.4972 48.9014C64.3517 48.978 64.2061 49.0393 64.0682 49.1006L63.6469 49.2768H63.601C64.2291 52.831 67.1859 54.0719 70.7707 52.019C74.7922 49.721 78.0477 44.0373 78.0477 39.3954C78.0784 35.2819 75.5123 33.3286 72.1266 34.5619Z" fill="#FF610A"/>
<path opacity="0.3" d="M56.2244 55.3894V53.0914C56.2616 50.146 56.7525 47.2239 57.6798 44.428C60.0467 37.1127 65.0334 30.1114 70.8014 26.81C74.4705 24.6882 77.8179 24.4277 80.384 25.6993L75.3361 22.7961C74.0914 21.9752 72.6294 21.5457 71.1384 21.5629C70.9029 21.5606 70.6675 21.5734 70.4337 21.6012C70.1886 21.6012 69.9435 21.6471 69.6677 21.6854C69.4097 21.7152 69.1539 21.7613 68.9017 21.8233C68.6429 21.8789 68.3873 21.9479 68.1357 22.0301C67.595 22.1893 67.0653 22.3838 66.5501 22.6123C66.282 22.7272 66.0139 22.8651 65.7381 22.9953C65.4624 23.1255 65.1866 23.2864 64.9185 23.4396C56.9138 28.0662 50.3951 39.832 50.3951 49.79V52.088C50.3951 61.9923 63.7159 72.77 63.7159 72.77L69.0779 75.834C68.9836 75.7717 68.8939 75.7026 68.8098 75.6272C64.8649 71.8661 56.2244 63.0111 56.2244 55.3894Z" fill="black"/>
<path opacity="0.5" d="M72.1265 34.5618C72.1735 34.8149 72.2042 35.0708 72.2185 35.3278C72.2185 35.4197 72.2185 35.504 72.2185 35.5959C72.2262 35.7465 72.2262 35.8973 72.2185 36.0479C72.2185 40.6898 68.963 46.3429 64.9338 48.6639L64.4972 48.9013C64.3516 48.9779 64.2061 49.0392 64.0682 49.1005L63.6469 49.2767H63.601C64.2291 52.8309 67.1858 54.0718 70.7707 52.019C74.7922 49.721 78.0477 44.0372 78.0477 39.3953C78.0784 35.2819 75.5123 33.3286 72.1265 34.5618Z" fill="black"/>
<path d="M85.363 36.3084C85.363 26.404 78.8443 22.1374 70.809 26.787C62.7737 31.4366 56.255 43.2254 56.255 53.1298V55.4278C56.255 63.0878 64.8955 71.9044 68.871 75.5736C69.0956 75.7752 69.3637 75.9223 69.6544 76.0033C69.9451 76.0844 70.2506 76.0972 70.5471 76.0409C70.8436 75.9846 71.1231 75.8606 71.3639 75.6785C71.6046 75.4965 71.8001 75.2613 71.935 74.9914C75.3667 67.9672 85.363 46.8026 85.363 38.5987V36.3084ZM70.809 52.0191C66.7875 54.3171 63.5243 52.4633 63.5243 47.8137C63.5243 43.1641 66.7722 37.534 70.7937 35.236C74.8152 32.938 78.0783 34.7917 78.0783 39.4413C78.0783 44.091 74.8152 49.6981 70.7937 52.0191H70.809Z" fill="#FF610A"/>
<path d="M85.363 36.3084C85.363 26.404 78.8443 22.1374 70.809 26.787C62.7737 31.4366 56.255 43.2254 56.255 53.1298V55.4278C56.255 63.0878 64.8955 71.9044 68.871 75.5736C69.0956 75.7752 69.3637 75.9223 69.6544 76.0033C69.9451 76.0844 70.2506 76.0972 70.5471 76.0409C70.8436 75.9846 71.1231 75.8606 71.3639 75.6785C71.6046 75.4965 71.8001 75.2613 71.935 74.9914C75.3667 67.9672 85.363 46.8026 85.363 38.5987V36.3084ZM70.809 52.0191C66.7875 54.3171 63.5243 52.4633 63.5243 47.8137C63.5243 43.1641 66.7722 37.534 70.7937 35.236C74.8152 32.938 78.0783 34.7917 78.0783 39.4413C78.0783 44.091 74.8152 49.6981 70.7937 52.0191H70.809Z" fill="#FF610A"/>
<path d="M181.496 117.696V116.93C181.509 115.961 181.672 115 181.979 114.08C182.696 111.704 184.221 109.652 186.291 108.282C186.743 107.961 187.268 107.759 187.818 107.694C188.369 107.63 188.926 107.706 189.439 107.914L187.777 106.957C187.37 106.69 186.893 106.552 186.406 106.558H186.138H185.901C185.815 106.566 185.731 106.581 185.648 106.604L185.403 106.665C185.224 106.718 185.05 106.785 184.882 106.865L184.614 106.987L184.338 107.133C181.695 108.665 179.55 112.495 179.55 115.789V116.555C179.55 119.81 183.932 123.349 183.932 123.349L185.701 124.352L185.617 124.283C184.338 123.104 181.496 120.201 181.496 117.696ZM186.728 110.848C186.732 110.932 186.732 111.016 186.728 111.101V111.185C186.732 111.236 186.732 111.287 186.728 111.338C186.682 112.169 186.441 112.977 186.024 113.697C185.608 114.417 185.027 115.028 184.33 115.482L184.192 115.559L184.047 115.628L183.909 115.681C184.108 116.846 185.081 117.252 186.261 116.577C186.956 116.122 187.534 115.51 187.95 114.79C188.365 114.071 188.605 113.263 188.651 112.433C188.681 111.07 187.839 110.442 186.728 110.848Z" fill="#FF610A"/>
<path opacity="0.6" d="M181.496 117.696V116.93C181.509 115.961 181.672 115 181.979 114.08C182.696 111.704 184.221 109.652 186.291 108.282C186.743 107.961 187.268 107.759 187.818 107.694C188.369 107.63 188.926 107.706 189.439 107.914L187.777 106.957C187.37 106.69 186.893 106.552 186.406 106.558H186.138H185.901C185.815 106.566 185.731 106.581 185.648 106.604L185.403 106.665C185.224 106.718 185.05 106.785 184.882 106.865L184.614 106.987L184.338 107.133C181.695 108.665 179.55 112.495 179.55 115.789V116.555C179.55 119.81 183.932 123.349 183.932 123.349L185.701 124.352L185.617 124.283C184.338 123.104 181.496 120.201 181.496 117.696Z" fill="white"/>
<path opacity="0.6" d="M186.705 110.848C186.709 110.932 186.709 111.016 186.705 111.101C186.705 111.101 186.705 111.154 186.705 111.185V111.338C186.66 112.168 186.421 112.976 186.006 113.696C185.59 114.416 185.011 115.028 184.315 115.482L184.169 115.559L184.032 115.628L183.886 115.681C184.093 116.846 185.066 117.252 186.238 116.578C186.934 116.123 187.513 115.511 187.928 114.791C188.343 114.071 188.583 113.263 188.628 112.433C188.658 111.07 187.823 110.442 186.705 110.848Z" fill="white"/>
<path d="M191.079 111.422C191.079 108.167 188.934 106.765 186.291 108.289C183.648 109.814 181.542 113.697 181.542 116.953V117.719C181.542 120.224 184.376 123.127 185.686 124.337C185.76 124.406 185.849 124.456 185.946 124.485C186.043 124.513 186.145 124.518 186.244 124.499C186.343 124.48 186.436 124.439 186.517 124.377C186.597 124.316 186.661 124.236 186.705 124.146C187.831 121.848 191.117 114.885 191.117 112.188L191.079 111.422ZM186.291 116.585C184.966 117.351 183.894 116.731 183.894 115.206C183.941 114.377 184.182 113.571 184.599 112.852C185.015 112.133 185.595 111.523 186.291 111.07C187.609 110.304 188.681 110.924 188.681 112.456C188.634 113.284 188.393 114.088 187.978 114.805C187.563 115.522 186.985 116.132 186.291 116.585Z" fill="#FF610A"/>
<path d="M191.079 111.422C191.079 108.167 188.934 106.765 186.291 108.289C183.648 109.814 181.542 113.697 181.542 116.953V117.719C181.542 120.224 184.376 123.127 185.686 124.337C185.76 124.406 185.849 124.456 185.946 124.485C186.043 124.513 186.145 124.518 186.244 124.499C186.343 124.48 186.436 124.439 186.517 124.377C186.597 124.316 186.661 124.236 186.705 124.146C187.831 121.848 191.117 114.885 191.117 112.188L191.079 111.422ZM186.291 116.585C184.966 117.351 183.894 116.731 183.894 115.206C183.941 114.377 184.182 113.571 184.599 112.852C185.015 112.133 185.595 111.523 186.291 111.07C187.609 110.304 188.681 110.924 188.681 112.456C188.634 113.284 188.393 114.088 187.978 114.805C187.563 115.522 186.985 116.132 186.291 116.585Z" fill="#FF610A"/>
<g opacity="0.8">
<path opacity="0.8" d="M191.079 111.422C191.079 108.167 188.934 106.765 186.291 108.289C183.648 109.814 181.542 113.697 181.542 116.953V117.719C181.542 120.224 184.376 123.127 185.686 124.337C185.76 124.406 185.849 124.456 185.946 124.485C186.043 124.513 186.145 124.518 186.244 124.499C186.343 124.48 186.436 124.439 186.517 124.377C186.597 124.316 186.661 124.236 186.705 124.146C187.831 121.848 191.117 114.885 191.117 112.188L191.079 111.422ZM186.291 116.585C184.966 117.351 183.894 116.731 183.894 115.206C183.941 114.377 184.182 113.571 184.599 112.852C185.015 112.133 185.595 111.523 186.291 111.07C187.609 110.304 188.681 110.924 188.681 112.456C188.634 113.284 188.393 114.088 187.978 114.805C187.563 115.522 186.985 116.132 186.291 116.585Z" fill="white"/>
</g>
<path d="M270.712 167.754V166.988C270.725 166.019 270.888 165.058 271.195 164.138C271.912 161.762 273.437 159.71 275.507 158.34C275.959 158.019 276.484 157.817 277.034 157.752C277.585 157.688 278.142 157.764 278.656 157.972L276.993 157.03C276.583 156.763 276.103 156.625 275.615 156.632H275.385H275.14L274.894 156.678L274.642 156.739C274.464 156.794 274.29 156.861 274.121 156.938L273.86 157.061L273.585 157.206C270.942 158.738 268.797 162.606 268.797 165.862V166.628C268.797 169.883 273.179 173.422 273.179 173.422L274.948 174.426L274.864 174.357C273.554 173.116 270.712 170.22 270.712 167.754ZM275.944 160.906C275.948 160.99 275.948 161.074 275.944 161.159V161.243C275.948 161.294 275.948 161.345 275.944 161.396C275.898 162.227 275.657 163.035 275.24 163.755C274.824 164.475 274.243 165.086 273.546 165.54L273.408 165.617L273.263 165.686L273.125 165.739C273.332 166.904 274.305 167.271 275.484 166.636C276.18 166.18 276.758 165.568 277.173 164.848C277.588 164.129 277.829 163.321 277.874 162.491C277.897 161.105 277.055 160.462 275.944 160.86V160.906Z" fill="#FF610A"/>
<path opacity="0.6" d="M270.712 167.754V166.988C270.725 166.019 270.888 165.058 271.195 164.138C271.912 161.762 273.437 159.71 275.507 158.34C275.959 158.019 276.484 157.817 277.034 157.752C277.585 157.688 278.142 157.764 278.656 157.972L276.993 157.03C276.583 156.763 276.103 156.625 275.615 156.632H275.385H275.14L274.894 156.678L274.642 156.739C274.464 156.794 274.29 156.861 274.121 156.938L273.86 157.061L273.585 157.206C270.942 158.738 268.797 162.606 268.797 165.862V166.628C268.797 169.883 273.179 173.422 273.179 173.422L274.948 174.426L274.864 174.357C273.554 173.116 270.712 170.22 270.712 167.754Z" fill="white"/>
<path opacity="0.6" d="M275.921 160.86C275.925 160.944 275.925 161.028 275.921 161.113C275.921 161.113 275.921 161.166 275.921 161.197V161.35C275.876 162.18 275.637 162.988 275.222 163.708C274.806 164.428 274.227 165.04 273.531 165.494L273.385 165.571L273.248 165.64L273.102 165.693C273.309 166.858 274.282 167.225 275.454 166.59C276.15 166.135 276.729 165.523 277.144 164.803C277.559 164.083 277.799 163.276 277.843 162.446C277.874 161.105 277.032 160.462 275.921 160.86Z" fill="white"/>
<path d="M280.295 161.442C280.295 158.187 278.15 156.785 275.507 158.309C272.865 159.833 270.712 163.717 270.712 166.973V167.739C270.712 170.243 273.554 173.147 274.864 174.357C274.938 174.426 275.027 174.476 275.123 174.504C275.22 174.532 275.322 174.537 275.422 174.519C275.521 174.5 275.614 174.458 275.694 174.397C275.774 174.336 275.839 174.256 275.883 174.165C277.009 171.867 280.295 164.904 280.295 162.208V161.442ZM275.507 166.605C274.182 167.371 273.11 166.75 273.11 165.226C273.154 164.394 273.395 163.585 273.811 162.863C274.228 162.142 274.809 161.529 275.507 161.074C276.825 160.308 277.897 160.929 277.897 162.461C277.852 163.291 277.612 164.098 277.197 164.818C276.782 165.538 276.203 166.15 275.507 166.605Z" fill="#FF610A"/>
<path d="M280.295 161.442C280.295 158.187 278.15 156.785 275.507 158.309C272.865 159.833 270.712 163.717 270.712 166.973V167.739C270.712 170.243 273.554 173.147 274.864 174.357C274.938 174.426 275.027 174.476 275.123 174.504C275.22 174.532 275.322 174.537 275.422 174.519C275.521 174.5 275.614 174.458 275.694 174.397C275.774 174.336 275.839 174.256 275.883 174.165C277.009 171.867 280.295 164.904 280.295 162.208V161.442ZM275.507 166.605C274.182 167.371 273.11 166.75 273.11 165.226C273.154 164.394 273.395 163.585 273.811 162.863C274.228 162.142 274.809 161.529 275.507 161.074C276.825 160.308 277.897 160.929 277.897 162.461C277.852 163.291 277.612 164.098 277.197 164.818C276.782 165.538 276.203 166.15 275.507 166.605Z" fill="#FF610A"/>
<g opacity="0.8">
<path opacity="0.8" d="M280.295 161.442C280.295 158.187 278.15 156.785 275.507 158.309C272.865 159.833 270.712 163.717 270.712 166.973V167.739C270.712 170.243 273.554 173.147 274.864 174.357C274.938 174.426 275.027 174.476 275.123 174.504C275.22 174.532 275.322 174.537 275.422 174.519C275.521 174.5 275.614 174.458 275.694 174.397C275.774 174.336 275.839 174.256 275.883 174.165C277.009 171.867 280.295 164.904 280.295 162.208V161.442ZM275.507 166.605C274.182 167.371 273.11 166.75 273.11 165.226C273.154 164.394 273.395 163.585 273.811 162.863C274.228 162.142 274.809 161.529 275.507 161.074C276.825 160.308 277.897 160.929 277.897 162.461C277.852 163.291 277.612 164.098 277.197 164.818C276.782 165.538 276.203 166.15 275.507 166.605Z" fill="white"/>
</g>
<path d="M360.702 336.596V329.878L310.506 318.334V325.044C310.522 325.248 310.602 325.441 310.736 325.596L330.276 353.003C330.759 353.678 331.28 353.563 331.433 352.751L333.907 339.889C334.008 339.482 334.234 339.115 334.552 338.841C334.87 338.566 335.266 338.397 335.684 338.357L360.058 336.825C360.487 336.741 360.694 336.68 360.702 336.596Z" fill="#FF610A"/>
<path opacity="0.3" d="M360.702 336.596V329.878L310.506 318.334V325.044C310.522 325.248 310.602 325.441 310.736 325.596L330.276 353.003C330.759 353.678 331.28 353.563 331.433 352.751L333.907 339.889C334.008 339.482 334.234 339.115 334.552 338.841C334.87 338.566 335.266 338.397 335.684 338.357L360.058 336.825C360.487 336.741 360.694 336.68 360.702 336.596Z" fill="black"/>
<path opacity="0.2" d="M330.713 353.394C331.042 353.547 331.333 353.333 331.441 352.758L333.915 339.897C333.982 339.593 334.121 339.309 334.321 339.07V329.625L330.713 334.911V353.394Z" fill="black"/>
<path d="M331.441 346.033L333.915 333.21C334.016 332.802 334.241 332.436 334.56 332.161C334.878 331.887 335.273 331.718 335.692 331.678L360.074 330.146C360.893 330.092 360.909 329.893 360.074 329.702L311.295 318.104C310.49 317.913 310.23 318.304 310.713 318.978L330.253 346.385C330.766 346.998 331.287 346.845 331.441 346.033Z" fill="#FF610A"/>
</svg>
