<svg width="318" height="415" viewBox="0 0 318 415" fill="none" xmlns="http://www.w3.org/2000/svg">
<path d="M273.16 92.6606C236.54 60.6606 186.97 92.6606 138.81 160.001C90.65 227.341 67.75 199.001 26.81 228.681C-14.13 258.361 -25.08 379.941 119.16 368.121C263.4 356.301 368.89 176.201 273.16 92.6606Z" fill="#F0F0F0"/>
<path d="M317.63 414.411C317.63 414.551 248.19 414.671 162.56 414.671C76.9301 414.671 7.46008 414.551 7.46008 414.411C7.46008 414.271 76.8901 414.151 162.56 414.151C248.23 414.151 317.63 414.281 317.63 414.411Z" fill="#263238"/>
<path d="M249.97 291.991C234.52 281.201 231.02 261.171 231.63 243.161C231.73 240.161 231.4 236.981 232.83 234.351C234.26 231.721 237.6 229.911 240.29 231.171C242.52 232.221 243.49 234.821 244.74 236.971C246.408 239.834 248.852 242.167 251.79 243.701C253.7 244.701 256.07 245.301 257.96 244.261C260.56 242.831 260.86 239.261 260.84 236.261C260.84 230.681 260.807 225.107 260.74 219.541C260.56 216.551 260.864 213.553 261.64 210.661C262.57 207.821 264.64 205.191 267.47 204.391C270.3 203.591 273.83 205.241 274.47 208.161C274.58 209.397 274.61 210.64 274.56 211.881C274.64 213.131 275.22 214.501 276.39 214.881C277.56 215.261 278.78 214.391 279.68 213.511C282.76 210.511 284.86 206.601 286.81 202.741C288.76 198.881 290.67 194.911 293.47 191.621C296.27 188.331 300.14 185.721 304.47 185.471C308.8 185.221 313.31 187.881 314.39 192.081C315.47 196.281 313.02 200.571 310.39 203.981C306.421 209.042 301.743 213.505 296.5 217.231C295.477 217.789 294.66 218.662 294.17 219.721C293.52 221.721 295.41 223.721 297.38 224.351C299.61 225.091 302.03 224.861 304.38 225.141C306.73 225.421 309.23 226.441 310.12 228.641C311.34 231.701 308.78 234.901 306.27 237.001C301.23 241.201 295.507 244.505 289.35 246.771C287.15 247.571 284.84 248.281 283.06 249.821C281.28 251.361 280.22 254.051 281.29 256.161C282.36 258.271 285.11 258.941 287.42 258.511C289.73 258.081 291.78 256.841 293.98 256.011C298.09 254.461 303.39 254.741 305.98 258.291C306.782 259.513 307.29 260.906 307.464 262.358C307.637 263.81 307.472 265.283 306.98 266.661C305.979 269.402 304.439 271.915 302.45 274.051C295.9 281.876 287.391 287.822 277.79 291.281C268.26 294.581 259.43 295.481 249.96 292.011" fill="#FF610A"/>
<path d="M309.99 187.941C309.99 187.941 309.9 188.041 309.7 188.221L308.81 189.011C308.03 189.711 306.88 190.731 305.43 192.081C301.319 195.898 297.501 200.019 294.01 204.411C291.78 207.181 289.47 210.321 287.01 213.731C284.55 217.141 282.01 220.821 279.49 224.731C276.803 228.854 274.343 233.12 272.12 237.511C270.96 239.801 269.94 242.191 268.89 244.631L265.79 252.081C261.704 261.465 258.145 271.07 255.13 280.851C252.702 288.853 251.028 297.066 250.13 305.381C249.548 310.992 249.455 316.643 249.85 322.271C250.01 324.271 250.16 325.801 250.3 326.841C250.36 327.341 250.4 327.741 250.44 328.031V328.441C250.397 328.31 250.367 328.177 250.35 328.041C250.3 327.751 250.24 327.361 250.16 326.861C249.98 325.861 249.79 324.281 249.61 322.281C249.128 316.643 249.161 310.972 249.71 305.341C250.552 296.99 252.189 288.739 254.6 280.701C257.59 270.892 261.139 261.263 265.23 251.861L268.41 244.441C269.46 242.011 270.49 239.601 271.66 237.301C273.899 232.897 276.379 228.62 279.09 224.491C281.65 220.491 284.23 216.871 286.66 213.491C289.09 210.111 291.44 206.951 293.66 204.191C297.187 199.811 301.056 195.718 305.23 191.951C306.71 190.621 307.89 189.621 308.69 188.951L309.62 188.201C309.734 188.101 309.858 188.014 309.99 187.941Z" fill="#263238"/>
<path d="M271.79 237.281C271.649 236.869 271.552 236.443 271.5 236.011C271.34 235.181 271.16 234.011 270.95 232.491C270.52 229.491 270.08 225.381 269.61 220.831C269.14 216.281 268.61 212.161 268.17 209.191C267.94 207.711 267.74 206.521 267.6 205.691C267.491 205.266 267.434 204.829 267.43 204.391C267.602 204.791 267.726 205.211 267.8 205.641C268.02 206.461 268.27 207.641 268.55 209.131C269.12 212.131 269.68 216.211 270.15 220.771C270.62 225.331 271.02 229.331 271.33 232.441C271.48 233.841 271.61 235.031 271.71 235.981C271.788 236.409 271.815 236.846 271.79 237.281Z" fill="#263238"/>
<path d="M310.27 230.101C309.783 230.207 309.288 230.267 308.79 230.281C307.79 230.371 306.37 230.491 304.61 230.691C301.09 231.071 296.25 231.771 290.94 232.771C285.63 233.771 280.86 234.901 277.43 235.771C275.72 236.211 274.34 236.611 273.43 236.881C272.944 237.053 272.441 237.174 271.93 237.241C272.392 237.008 272.874 236.817 273.37 236.671C274.31 236.341 275.67 235.881 277.37 235.391C280.78 234.391 285.55 233.201 290.88 232.181C295.395 231.317 299.951 230.683 304.53 230.281C306.3 230.131 307.73 230.071 308.73 230.051C309.244 230.016 309.76 230.032 310.27 230.101Z" fill="#263238"/>
<path d="M255.09 280.001C254.983 279.856 254.896 279.698 254.83 279.531L254.17 278.141C253.6 276.931 252.83 275.141 251.91 272.951C250.05 268.551 247.68 262.391 245.16 255.551C242.64 248.711 240.32 242.551 238.56 238.101C237.7 235.941 236.99 234.171 236.46 232.851L235.9 231.421C235.822 231.256 235.769 231.081 235.74 230.901C235.847 231.045 235.934 231.203 236 231.371L236.66 232.761C237.22 233.971 238 235.761 238.92 237.951C240.78 242.351 243.15 248.511 245.67 255.351C248.19 262.191 250.51 268.351 252.27 272.801C253.13 274.961 253.84 276.731 254.36 278.051C254.59 278.621 254.78 279.051 254.93 279.481C255.008 279.645 255.062 279.82 255.09 280.001Z" fill="#263238"/>
<path d="M306.17 263.531C306.01 263.622 305.838 263.693 305.66 263.741L304.18 264.241L298.71 266.011C294.09 267.511 287.71 269.651 280.71 272.011C273.71 274.371 267.3 276.471 262.65 277.871C260.33 278.581 258.44 279.121 257.13 279.481L255.62 279.871C255.444 279.926 255.263 279.963 255.08 279.981C255.24 279.889 255.412 279.818 255.59 279.771L257.07 279.271L262.54 277.501C267.16 276.001 273.54 273.861 280.54 271.501C287.54 269.141 293.94 267.041 298.59 265.641C300.92 264.931 302.8 264.391 304.12 264.031L305.63 263.641C305.806 263.585 305.987 263.548 306.17 263.531Z" fill="#263238"/>
<path d="M285.33 20.9605L280.18 22.8005L277.97 16.0705C273.91 3.66053 260.97 -2.92947 249.08 1.26053C237.19 5.45053 230.86 19.0605 234.92 31.4705L237.13 38.2005L231.96 40.0505C229.989 40.8152 228.388 42.3101 227.49 44.2247C226.592 46.1392 226.467 48.326 227.14 50.3305L241.47 94.1205C241.767 95.1128 242.261 96.0353 242.922 96.8329C243.583 97.6306 244.398 98.2873 245.318 98.764C246.237 99.2407 247.244 99.5276 248.276 99.6077C249.309 99.6879 250.348 99.5596 251.33 99.2305L304.7 80.1405C306.697 79.3772 308.321 77.869 309.229 75.9331C310.138 73.9973 310.26 71.7846 309.57 69.7605L295.23 25.9705C294.925 24.981 294.423 24.0631 293.756 23.2715C293.088 22.48 292.268 21.8311 291.344 21.3635C290.42 20.8959 289.411 20.6192 288.378 20.55C287.345 20.4808 286.308 20.6204 285.33 20.9605ZM244.65 27.9605C243.555 24.7337 243.752 21.2085 245.198 18.1234C246.645 15.0383 249.229 12.6326 252.41 11.4105C253.981 10.8732 255.643 10.6577 257.299 10.7769C258.955 10.8962 260.569 11.3477 262.047 12.1046C263.524 12.8615 264.834 13.9082 265.898 15.1823C266.962 16.4565 267.759 17.9319 268.24 19.5205L270.44 26.2505L246.85 34.6905L244.65 27.9605ZM274.65 66.8205L278.31 78.0005C278.377 78.2247 278.356 78.4661 278.249 78.6747C278.143 78.8833 277.961 79.0429 277.74 79.1205L272.61 80.9505C272.406 81.0071 272.188 80.9825 272.001 80.8819C271.815 80.7812 271.675 80.6123 271.61 80.4105L267.92 69.2805C265.885 69.1697 263.933 68.4399 262.325 67.1889C260.716 65.9378 259.528 64.2253 258.92 62.2805C258.05 59.7095 258.209 56.9016 259.363 54.4449C260.517 51.9881 262.576 50.073 265.11 49.1005C266.361 48.6731 267.686 48.5019 269.004 48.5971C270.323 48.6923 271.609 49.0521 272.786 49.6549C273.962 50.2577 275.006 51.0913 275.853 52.1059C276.701 53.1205 277.336 54.2954 277.72 55.5605C278.363 57.5361 278.417 59.6564 277.873 61.6617C277.33 63.667 276.213 65.4703 274.66 66.8505L274.65 66.8205Z" fill="#FF610A"/>
<path d="M279.95 22.6806C279.95 22.8206 270.4 26.4106 258.52 30.6806C246.64 34.9506 236.95 38.3806 236.9 38.2806C236.85 38.1806 246.45 34.5606 258.34 30.2806C270.23 26.0006 279.9 22.5506 279.95 22.6806Z" fill="#263238"/>
<path d="M291.29 24.5205C291.334 24.6073 291.371 24.6976 291.4 24.7905C291.48 24.9905 291.57 25.2505 291.69 25.5705C291.95 26.3005 292.31 27.3105 292.76 28.5705L296.6 39.7505C298.2 44.4905 300.11 50.1105 302.23 56.3505C303.23 59.4805 304.41 62.7405 305.51 66.1705C306.099 67.938 306.353 69.7998 306.26 71.6605C306.175 72.6282 305.9 73.5696 305.45 74.4305C304.969 75.2886 304.328 76.0457 303.56 76.6605C302.015 77.7883 300.3 78.6626 298.48 79.2505L293.33 81.1005L283.58 84.5905L267.07 90.4705L255.92 94.3905L252.92 95.3905L252.12 95.6505C252.034 95.6885 251.943 95.7122 251.85 95.7205C251.85 95.7205 251.93 95.7205 252.1 95.6005L252.88 95.2905L255.88 94.1605L266.97 90.0805L283.45 84.0805L293.18 80.5605L298.33 78.7005C300.098 78.1365 301.764 77.2888 303.26 76.1905C303.974 75.6201 304.572 74.9172 305.02 74.1205C305.443 73.3243 305.699 72.4495 305.77 71.5505C305.862 69.7577 305.618 67.9635 305.05 66.2605C303.97 62.8605 302.83 59.5705 301.8 56.4405C299.72 50.1905 297.8 44.5505 296.28 39.8105C294.76 35.0705 293.48 31.2605 292.6 28.5805C292.18 27.2705 291.86 26.2505 291.6 25.5105L291.36 24.7105C291.33 24.6499 291.306 24.5862 291.29 24.5205Z" fill="#263238"/>
<path d="M263.13 10.7305C263.13 10.7305 262.6 10.4705 261.62 10.0705C260.223 9.53379 258.746 9.23629 257.25 9.19051C255.033 9.11449 252.827 9.53117 250.79 10.4105C248.313 11.5055 246.196 13.2766 244.68 15.5205C243.154 17.758 242.335 20.4023 242.33 23.1105C242.351 25.3302 242.688 27.5357 243.33 29.6605C243.85 31.4805 244.39 32.9305 244.75 33.9405C244.962 34.4535 245.136 34.9817 245.27 35.5205C244.986 35.0409 244.748 34.5353 244.56 34.0105C244.15 33.0105 243.56 31.5905 242.98 29.7605C242.268 27.6134 241.88 25.372 241.83 23.1105C241.803 20.2999 242.641 17.5491 244.23 15.2305C245.799 12.9046 248.003 11.0788 250.58 9.97051C252.68 9.08635 254.955 8.69632 257.23 8.83051C258.758 8.90839 260.259 9.26421 261.66 9.88051C262.034 10.0533 262.396 10.2538 262.74 10.4805C262.882 10.543 263.014 10.6274 263.13 10.7305Z" fill="#263238"/>
<path d="M263.59 49.8606C263.75 49.7638 263.917 49.6802 264.09 49.6106C264.591 49.3847 265.109 49.2007 265.64 49.0606C266.483 48.8118 267.352 48.6641 268.23 48.6206C269.424 48.5564 270.618 48.7368 271.74 49.1506C274.3 50.0506 276.65 52.6606 277.81 56.1506C278.366 58.0235 278.366 60.0177 277.81 61.8906C277.193 63.9233 276.088 65.774 274.59 67.2806L274.65 67.0106C275.98 70.6606 277.43 74.6206 278.93 78.7506L279.02 79.0006L278.77 79.0906L276.48 79.8506L271.48 81.5206L271.23 81.6006L271.15 81.3506C269.78 77.2106 268.28 73.3506 267.15 69.5606L267.37 69.7306C265.415 69.5682 263.551 68.8344 262.01 67.6206C260.616 66.5467 259.472 65.1816 258.66 63.6206C257.927 62.2362 257.562 60.6866 257.6 59.1206C257.646 57.52 258.046 55.9495 258.77 54.5215C259.495 53.0935 260.526 51.8433 261.79 50.8606C262.31 50.4382 262.894 50.1007 263.52 49.8606C262.955 50.1957 262.408 50.5595 261.88 50.9506C260.491 52.1254 259.427 53.637 258.79 55.3406C258.243 56.6252 257.987 58.015 258.041 59.4103C258.094 60.8056 258.456 62.1717 259.1 63.4106C259.899 64.9123 261.015 66.2226 262.37 67.2506C263.84 68.4043 265.617 69.0999 267.48 69.2506H267.65L267.7 69.4006C268.8 73.1206 270.31 77.0106 271.7 81.1706L271.37 81.0106L276.37 79.3406L278.65 78.5706L278.49 78.9106C277 74.7806 275.56 70.8106 274.24 67.1606V67.0106L274.36 66.8906C275.814 65.4464 276.898 63.673 277.52 61.7206C278.05 59.929 278.05 58.0221 277.52 56.2306C276.43 52.8706 274.18 50.3206 271.74 49.4206C270.66 49.0041 269.507 48.8102 268.35 48.8506C267.486 48.8704 266.627 48.9878 265.79 49.2006C264.3 49.5706 263.6 49.9106 263.59 49.8606Z" fill="#263238"/>
<path d="M232.68 338.6L132.79 338.14C127.022 338.109 121.501 335.789 117.442 331.69C113.383 327.591 111.116 322.049 111.14 316.28L112.2 65.8705C112.212 63.0125 112.787 60.1849 113.892 57.5493C114.997 54.9137 116.611 52.5217 118.641 50.5101C120.671 48.4985 123.078 46.9068 125.724 45.8258C128.369 44.7449 131.202 44.196 134.06 44.2105L233.94 44.6705C239.709 44.6996 245.23 47.017 249.291 51.1139C253.352 55.2107 255.621 60.7519 255.6 66.5205L254.54 316.921C254.528 319.779 253.953 322.608 252.849 325.245C251.744 327.881 250.13 330.275 248.1 332.288C246.07 334.301 243.664 335.895 241.018 336.978C238.372 338.061 235.539 338.612 232.68 338.6Z" fill="#455A64"/>
<path d="M233.79 53.2805H214.43C213.798 53.2922 213.175 53.4282 212.596 53.6808C212.017 53.9334 211.493 54.2976 211.055 54.7527C210.617 55.2077 210.272 55.7446 210.042 56.3328C209.811 56.9209 209.698 57.5488 209.71 58.1805V61.6905C209.722 62.3217 209.609 62.949 209.378 63.5366C209.147 64.1242 208.803 64.6604 208.365 65.1147C207.926 65.5689 207.402 65.9322 206.823 66.1837C206.244 66.4352 205.621 66.57 204.99 66.5805L167.25 66.4104C165.973 66.3764 164.762 65.8371 163.883 64.9108C163.004 63.9846 162.528 62.7472 162.56 61.4705V57.9605C162.592 56.6854 162.118 55.4495 161.241 54.5235C160.363 53.5976 159.155 53.0571 157.88 53.0205H151.07L134.12 52.9405C130.088 52.9165 126.212 54.4909 123.338 57.3192C120.465 60.1474 118.83 63.999 118.79 68.0305L117.79 312.45C117.781 314.451 118.166 316.433 118.923 318.284C119.679 320.135 120.794 321.819 122.201 323.24C123.609 324.661 125.283 325.791 127.127 326.564C128.971 327.338 130.95 327.741 132.95 327.75L232.63 328.21C234.631 328.22 236.615 327.835 238.468 327.077C240.32 326.32 242.005 325.205 243.427 323.796C244.849 322.388 245.979 320.713 246.753 318.867C247.528 317.022 247.931 315.042 247.94 313.04L248.94 68.6204C248.964 64.5776 247.382 60.6907 244.541 57.8142C241.7 54.9376 237.833 53.3069 233.79 53.2805Z" fill="white"/>
<path d="M220.38 295.601L146.26 295.281C145.49 295.281 144.87 294.441 144.88 293.421L144.96 274.031C144.96 273.031 145.59 272.171 146.36 272.171L220.48 272.511C220.907 272.584 221.288 272.82 221.546 273.168C221.803 273.517 221.915 273.951 221.86 274.381L221.79 293.751C221.79 294.781 221.15 295.611 220.38 295.601Z" fill="#FF610A"/>
<path d="M168.876 285.98C168.454 285.98 168.047 285.913 167.657 285.777C167.272 285.642 166.974 285.463 166.762 285.24L166.998 284.777C167.204 284.983 167.478 285.151 167.819 285.281C168.161 285.406 168.513 285.468 168.876 285.468C169.386 285.468 169.768 285.376 170.023 285.192C170.278 285.002 170.405 284.758 170.405 284.46C170.405 284.232 170.335 284.05 170.194 283.915C170.058 283.779 169.89 283.676 169.689 283.606C169.489 283.53 169.21 283.449 168.852 283.362C168.424 283.254 168.082 283.151 167.827 283.053C167.573 282.95 167.353 282.796 167.169 282.59C166.99 282.384 166.9 282.104 166.9 281.752C166.9 281.465 166.976 281.205 167.128 280.971C167.28 280.733 167.513 280.543 167.827 280.402C168.142 280.261 168.532 280.191 168.998 280.191C169.324 280.191 169.641 280.237 169.95 280.329C170.264 280.416 170.535 280.538 170.763 280.695L170.56 281.175C170.321 281.018 170.066 280.901 169.795 280.825C169.524 280.744 169.259 280.703 168.998 280.703C168.5 280.703 168.123 280.801 167.868 280.996C167.619 281.186 167.494 281.432 167.494 281.736C167.494 281.963 167.562 282.148 167.697 282.289C167.838 282.424 168.012 282.53 168.218 282.606C168.429 282.676 168.711 282.755 169.063 282.842C169.481 282.945 169.817 283.048 170.072 283.151C170.332 283.248 170.551 283.4 170.73 283.606C170.909 283.807 170.999 284.08 170.999 284.427C170.999 284.715 170.92 284.977 170.763 285.216C170.611 285.449 170.375 285.636 170.055 285.777C169.736 285.913 169.343 285.98 168.876 285.98ZM172.31 280.24H172.911V285.932H172.31V280.24ZM179.52 280.24V285.932H179.024L175.365 281.313V285.932H174.763V280.24H175.259L178.927 284.858V280.24H179.52ZM185.387 283.086H185.964V285.257C185.698 285.49 185.384 285.669 185.021 285.793C184.658 285.918 184.275 285.98 183.874 285.98C183.305 285.98 182.793 285.856 182.337 285.606C181.882 285.357 181.524 285.013 181.264 284.574C181.004 284.129 180.874 283.633 180.874 283.086C180.874 282.538 181.004 282.045 181.264 281.606C181.524 281.161 181.882 280.814 182.337 280.565C182.793 280.316 183.308 280.191 183.882 280.191C184.316 280.191 184.715 280.261 185.078 280.402C185.441 280.538 185.747 280.741 185.997 281.012L185.623 281.394C185.173 280.95 184.601 280.727 183.907 280.727C183.446 280.727 183.029 280.83 182.655 281.036C182.286 281.237 181.996 281.519 181.785 281.882C181.573 282.24 181.467 282.641 181.467 283.086C181.467 283.53 181.573 283.931 181.785 284.289C181.996 284.647 182.286 284.929 182.655 285.135C183.023 285.341 183.438 285.444 183.899 285.444C184.484 285.444 184.98 285.297 185.387 285.005V283.086ZM192.088 285.98C191.351 285.98 190.776 285.769 190.364 285.346C189.952 284.923 189.746 284.308 189.746 283.5V280.24H190.348V283.476C190.348 284.137 190.497 284.631 190.795 284.956C191.093 285.281 191.524 285.444 192.088 285.444C192.657 285.444 193.091 285.281 193.389 284.956C193.687 284.631 193.836 284.137 193.836 283.476V280.24H194.422V283.5C194.422 284.308 194.216 284.923 193.804 285.346C193.397 285.769 192.825 285.98 192.088 285.98ZM198.365 280.24C199.092 280.24 199.661 280.413 200.073 280.76C200.485 281.107 200.691 281.584 200.691 282.191C200.691 282.798 200.485 283.275 200.073 283.622C199.661 283.964 199.092 284.135 198.365 284.135H196.837V285.932H196.235V280.24H198.365ZM198.349 283.606C198.913 283.606 199.344 283.484 199.642 283.24C199.94 282.991 200.089 282.641 200.089 282.191C200.089 281.73 199.94 281.378 199.642 281.134C199.344 280.885 198.913 280.76 198.349 280.76H196.837V283.606H198.349Z" fill="#E8E8E3"/>
<path d="M161.044 125.131L135.324 125.014L135.303 129.734L161.023 129.851L161.044 125.131Z" fill="#FF610A"/>
<path opacity="0.1" d="M161.044 125.131L135.324 125.014L135.303 129.734L161.023 129.851L161.044 125.131Z" fill="black"/>
<path d="M236.44 154.11C236.642 154.09 236.84 154.043 237.03 153.97C237.307 153.862 237.547 153.678 237.724 153.439C237.901 153.201 238.007 152.917 238.03 152.62C238.03 151.03 238.03 148.71 238.03 145.73C238.03 144.24 238.03 142.57 238.03 140.73C238.03 140.28 238.03 139.81 238.03 139.34C238.095 138.884 237.996 138.42 237.75 138.03C237.612 137.844 237.433 137.691 237.227 137.586C237.02 137.48 236.792 137.423 236.56 137.42H235H220.55L136.91 137.11C136.696 137.107 136.484 137.155 136.293 137.251C136.101 137.346 135.936 137.487 135.81 137.66C135.569 138.052 135.476 138.517 135.55 138.97C135.55 139.97 135.55 140.97 135.55 141.97C135.55 143.97 135.55 145.97 135.55 147.97C135.55 148.97 135.55 149.97 135.55 150.97C135.509 151.436 135.509 151.905 135.55 152.37C135.603 152.57 135.7 152.755 135.835 152.911C135.971 153.067 136.14 153.19 136.33 153.27C136.527 153.349 136.738 153.386 136.95 153.38H142.04L164.25 153.5L201.85 153.73L227.2 153.93L234.09 154.01H235.88C236.29 154.01 236.49 154.01 236.49 154.01H235.88H234.09H227.2H201.85L164.25 153.89L142.04 153.8H136.95C136.67 153.812 136.391 153.764 136.13 153.66C135.867 153.548 135.633 153.377 135.445 153.16C135.258 152.944 135.123 152.687 135.05 152.41C134.992 152.148 134.972 151.879 134.99 151.61V150.87C134.99 149.87 134.99 148.87 134.99 147.87C134.99 145.87 134.99 143.87 134.99 141.87C134.99 140.87 134.99 139.87 134.99 138.87C134.971 138.604 134.971 138.337 134.99 138.07C135.028 137.776 135.141 137.497 135.32 137.26C135.493 137.019 135.721 136.823 135.986 136.689C136.25 136.555 136.543 136.487 136.84 136.491L220.48 136.95L234.93 137.05H236.49C236.765 137.051 237.036 137.117 237.279 137.244C237.523 137.371 237.733 137.555 237.89 137.78C238.172 138.215 238.286 138.738 238.21 139.25C238.21 139.72 238.21 140.19 238.21 140.64C238.21 142.46 238.21 144.13 238.21 145.64C238.21 148.64 238.14 150.94 238.12 152.54C238.096 152.848 237.984 153.142 237.798 153.389C237.612 153.635 237.359 153.823 237.07 153.93C236.881 154.048 236.663 154.11 236.44 154.11Z" fill="#E0E0E0"/>
<path d="M190.09 142.13H143.05V146.54H190.09V142.13Z" fill="#FF610A"/>
<path opacity="0.2" d="M190.09 142.13H143.05V146.54H190.09V142.13Z" fill="white"/>
<path d="M160.869 168.189L135.149 168.073L135.128 172.793L160.847 172.909L160.869 168.189Z" fill="#FF610A"/>
<path opacity="0.1" d="M160.869 168.189L135.149 168.073L135.128 172.793L160.847 172.909L160.869 168.189Z" fill="black"/>
<path d="M235.79 197.171C235.992 197.146 236.192 197.109 236.39 197.061C236.669 196.972 236.926 196.824 237.144 196.627C237.361 196.431 237.534 196.19 237.65 195.921C237.808 195.517 237.869 195.082 237.83 194.651C237.83 194.171 237.83 193.651 237.83 193.071C237.83 191.911 237.83 190.591 237.83 189.071V182.721C237.878 182.261 237.776 181.798 237.54 181.401C237.293 180.993 236.905 180.69 236.45 180.551C235.952 180.462 235.445 180.435 234.94 180.471H220.55L137.2 180.161C136.752 180.162 136.319 180.325 135.982 180.622C135.646 180.918 135.428 181.326 135.37 181.771C135.37 182.721 135.37 183.771 135.37 184.771C135.37 186.771 135.37 188.771 135.37 190.771C135.37 191.771 135.37 192.771 135.37 193.771C135.333 194.238 135.353 194.708 135.43 195.171C135.555 195.576 135.812 195.928 136.16 196.171C136.529 196.405 136.963 196.517 137.4 196.491H138.79H141.68L163.81 196.601L201.28 196.831L226.54 197.031L233.41 197.111H235.2H235.8H235.2H233.41H226.54H201.28L163.79 197.071L141.66 196.991H137.31C136.769 197.023 136.232 196.879 135.78 196.581C135.325 196.265 134.993 195.803 134.84 195.271C134.75 194.762 134.724 194.245 134.76 193.731C134.76 192.731 134.76 191.731 134.76 190.731C134.76 188.731 134.76 186.731 134.76 184.731C134.76 183.731 134.76 182.731 134.76 181.731C134.833 181.159 135.112 180.633 135.544 180.252C135.977 179.871 136.534 179.661 137.11 179.661L220.46 180.121L234.85 180.231C235.386 180.198 235.924 180.235 236.45 180.341C236.97 180.51 237.408 180.867 237.68 181.341C237.939 181.781 238.051 182.292 238 182.801C238 183.271 238 183.731 238 184.191C238 186.001 238 187.661 238 189.191C238 190.721 238 192.011 238 193.191C238 193.761 238 194.291 238 194.781C238.036 195.228 237.964 195.677 237.79 196.091C237.66 196.366 237.472 196.611 237.24 196.808C237.007 197.005 236.734 197.149 236.44 197.231C236.222 197.249 236.002 197.228 235.79 197.171Z" fill="#E0E0E0"/>
<path d="M160.675 213.118L134.955 213.001L134.934 217.721L160.654 217.838L160.675 213.118Z" fill="#FF610A"/>
<path opacity="0.1" d="M160.675 213.118L134.955 213.001L134.934 217.721L160.654 217.838L160.675 213.118Z" fill="black"/>
<path d="M235.59 242.08C235.792 242.057 235.993 242.02 236.19 241.97C236.468 241.882 236.724 241.736 236.941 241.541C237.159 241.346 237.332 241.107 237.45 240.84C237.607 240.437 237.668 240.002 237.63 239.57C237.63 239.08 237.63 238.57 237.63 237.98C237.63 236.83 237.63 235.5 237.63 233.98V227.63C237.678 227.171 237.576 226.708 237.34 226.31C237.088 225.91 236.701 225.613 236.25 225.47C235.752 225.378 235.245 225.348 234.74 225.38H220.35L137 225.07C136.552 225.071 136.119 225.235 135.782 225.531C135.446 225.828 135.228 226.236 135.17 226.68C135.17 227.68 135.17 228.68 135.17 229.68C135.17 231.68 135.17 233.68 135.17 235.68C135.17 236.68 135.17 237.68 135.17 238.68C135.133 239.144 135.153 239.611 135.23 240.07C135.35 240.478 135.608 240.832 135.96 241.07C136.327 241.31 136.763 241.423 137.2 241.39H141.55L163.68 241.51L201.15 241.74L226.41 241.94L233.28 242.02H235.07C235.47 242.02 235.67 242.02 235.67 242.02C235.67 242.02 235.47 242.02 235.07 242.02H233.28H226.41H201.15L163.68 241.91L141.55 241.82H137.2C136.659 241.857 136.121 241.713 135.67 241.41C135.215 241.095 134.883 240.632 134.73 240.1C134.64 239.592 134.614 239.075 134.65 238.56C134.65 237.56 134.65 236.56 134.65 235.56C134.65 233.56 134.65 231.56 134.65 229.56C134.65 228.56 134.65 227.56 134.65 226.51C134.721 225.939 134.998 225.414 135.429 225.033C135.859 224.652 136.415 224.441 136.99 224.44L220.34 224.9L234.73 225.01C235.266 224.978 235.804 225.015 236.33 225.12C236.85 225.29 237.288 225.646 237.56 226.12C237.819 226.561 237.931 227.072 237.88 227.58C237.88 228.05 237.88 228.52 237.88 228.97C237.88 230.78 237.88 232.44 237.88 233.97C237.88 235.5 237.88 236.79 237.88 237.97C237.88 238.54 237.88 239.07 237.88 239.56C237.918 240.008 237.846 240.458 237.67 240.87C237.54 241.146 237.352 241.391 237.12 241.588C236.887 241.785 236.614 241.929 236.32 242.01C236.086 242.091 235.836 242.115 235.59 242.08Z" fill="#E0E0E0"/>
<path d="M189.086 186.437L142.046 186.224L142.026 190.634L189.066 190.847L189.086 186.437Z" fill="#FF610A"/>
<path opacity="0.2" d="M189.086 186.437L142.046 186.224L142.026 190.634L189.066 190.847L189.086 186.437Z" fill="white"/>
<path d="M146.3 233.92C146.271 234.323 146.124 234.707 145.877 235.027C145.631 235.346 145.297 235.587 144.915 235.718C144.534 235.849 144.122 235.865 143.732 235.765C143.341 235.664 142.989 235.451 142.718 235.152C142.448 234.853 142.271 234.481 142.209 234.082C142.148 233.684 142.205 233.276 142.374 232.909C142.542 232.543 142.815 232.234 143.157 232.021C143.499 231.808 143.897 231.7 144.3 231.71C144.857 231.741 145.38 231.991 145.754 232.405C146.128 232.818 146.325 233.363 146.3 233.92Z" fill="#FF610A"/>
<path d="M152.67 233.951C152.69 234.232 152.651 234.515 152.557 234.782C152.462 235.048 152.314 235.292 152.122 235.499C151.929 235.706 151.696 235.87 151.436 235.983C151.177 236.096 150.898 236.154 150.615 236.154C150.332 236.154 150.053 236.096 149.794 235.983C149.535 235.87 149.301 235.706 149.109 235.499C148.916 235.292 148.768 235.048 148.673 234.782C148.579 234.515 148.54 234.232 148.56 233.951C148.54 233.669 148.579 233.386 148.673 233.119C148.768 232.853 148.916 232.609 149.109 232.402C149.301 232.195 149.535 232.031 149.794 231.918C150.053 231.805 150.332 231.747 150.615 231.747C150.898 231.747 151.177 231.805 151.436 231.918C151.696 232.031 151.929 232.195 152.122 232.402C152.314 232.609 152.462 232.853 152.557 233.119C152.651 233.386 152.69 233.669 152.67 233.951Z" fill="#FF610A"/>
<path d="M159.05 233.981C159.021 234.383 158.874 234.767 158.627 235.087C158.381 235.406 158.047 235.647 157.665 235.778C157.284 235.909 156.872 235.925 156.482 235.825C156.091 235.724 155.739 235.511 155.468 235.212C155.198 234.913 155.021 234.541 154.959 234.142C154.898 233.744 154.955 233.336 155.124 232.969C155.292 232.603 155.565 232.294 155.907 232.081C156.249 231.868 156.647 231.76 157.05 231.77C157.606 231.804 158.127 232.054 158.501 232.467C158.875 232.881 159.072 233.424 159.05 233.981Z" fill="#FF610A"/>
<path d="M165.42 234.011C165.391 234.413 165.244 234.798 164.997 235.117C164.751 235.437 164.417 235.677 164.035 235.808C163.654 235.939 163.242 235.955 162.852 235.855C162.461 235.754 162.109 235.541 161.838 235.242C161.568 234.943 161.391 234.571 161.329 234.172C161.268 233.774 161.325 233.366 161.494 232.999C161.662 232.633 161.935 232.324 162.277 232.111C162.619 231.898 163.017 231.79 163.42 231.801C163.976 231.834 164.497 232.084 164.871 232.497C165.245 232.911 165.442 233.454 165.42 234.011Z" fill="#FF610A"/>
<path d="M171.79 234.03C171.762 234.433 171.617 234.819 171.372 235.14C171.127 235.461 170.793 235.703 170.412 235.835C170.03 235.968 169.618 235.986 169.227 235.886C168.836 235.787 168.482 235.574 168.211 235.275C167.939 234.977 167.761 234.605 167.699 234.206C167.637 233.807 167.694 233.398 167.862 233.031C168.031 232.664 168.303 232.355 168.646 232.141C168.989 231.928 169.386 231.82 169.79 231.83C170.344 231.864 170.864 232.113 171.237 232.524C171.611 232.935 171.809 233.475 171.79 234.03Z" fill="#FF610A"/>
<path d="M178.17 234.06C178.143 234.461 177.999 234.845 177.756 235.165C177.513 235.485 177.182 235.727 176.804 235.862C176.425 235.996 176.016 236.017 175.626 235.922C175.235 235.826 174.882 235.619 174.608 235.325C174.334 235.031 174.152 234.663 174.084 234.267C174.017 233.872 174.066 233.464 174.227 233.096C174.388 232.728 174.652 232.415 174.989 232.195C175.325 231.976 175.718 231.859 176.12 231.86C176.683 231.881 177.215 232.125 177.6 232.537C177.984 232.949 178.189 233.497 178.17 234.06Z" fill="#FF610A"/>
<path d="M184.54 234.091C184.56 234.372 184.521 234.655 184.427 234.922C184.332 235.188 184.184 235.432 183.992 235.639C183.799 235.846 183.566 236.01 183.306 236.123C183.047 236.236 182.768 236.294 182.485 236.294C182.202 236.294 181.923 236.236 181.664 236.123C181.405 236.01 181.171 235.846 180.979 235.639C180.786 235.432 180.638 235.188 180.543 234.922C180.449 234.655 180.41 234.372 180.43 234.091C180.41 233.809 180.449 233.526 180.543 233.259C180.638 232.993 180.786 232.749 180.979 232.542C181.171 232.335 181.405 232.171 181.664 232.058C181.923 231.945 182.202 231.887 182.485 231.887C182.768 231.887 183.047 231.945 183.306 232.058C183.566 232.171 183.799 232.335 183.992 232.542C184.184 232.749 184.332 232.993 184.427 233.259C184.521 233.526 184.56 233.809 184.54 234.091Z" fill="#FF610A"/>
<path d="M190.91 234.121C190.883 234.521 190.739 234.905 190.496 235.225C190.253 235.545 189.922 235.788 189.544 235.922C189.165 236.056 188.756 236.077 188.366 235.982C187.975 235.886 187.622 235.679 187.348 235.385C187.074 235.091 186.892 234.723 186.824 234.328C186.757 233.932 186.806 233.524 186.967 233.156C187.128 232.788 187.392 232.475 187.729 232.255C188.065 232.036 188.458 231.92 188.86 231.921C189.423 231.941 189.955 232.185 190.34 232.597C190.724 233.009 190.929 233.557 190.91 234.121Z" fill="#FF610A"/>
<path d="M197.28 234.15C197.252 234.553 197.107 234.939 196.862 235.26C196.617 235.581 196.283 235.823 195.902 235.955C195.52 236.088 195.108 236.106 194.717 236.006C194.326 235.907 193.972 235.694 193.701 235.395C193.429 235.097 193.251 234.725 193.189 234.326C193.127 233.927 193.184 233.518 193.352 233.151C193.521 232.784 193.793 232.475 194.136 232.261C194.479 232.048 194.876 231.94 195.28 231.95C195.834 231.984 196.354 232.233 196.727 232.644C197.101 233.055 197.299 233.595 197.28 234.15Z" fill="#FF610A"/>
<g opacity="0.2">
<path opacity="0.2" d="M146.3 233.92C146.271 234.323 146.124 234.707 145.877 235.027C145.631 235.346 145.297 235.587 144.915 235.718C144.534 235.849 144.122 235.865 143.732 235.765C143.341 235.664 142.989 235.451 142.718 235.152C142.448 234.853 142.271 234.481 142.209 234.082C142.148 233.684 142.205 233.276 142.374 232.909C142.542 232.543 142.815 232.234 143.157 232.021C143.499 231.808 143.897 231.7 144.3 231.71C144.857 231.741 145.38 231.991 145.754 232.405C146.128 232.818 146.325 233.363 146.3 233.92Z" fill="white"/>
<path opacity="0.2" d="M152.67 233.951C152.69 234.232 152.651 234.515 152.557 234.782C152.462 235.048 152.314 235.292 152.122 235.499C151.929 235.706 151.696 235.87 151.436 235.983C151.177 236.096 150.898 236.154 150.615 236.154C150.332 236.154 150.053 236.096 149.794 235.983C149.535 235.87 149.301 235.706 149.109 235.499C148.916 235.292 148.768 235.048 148.673 234.782C148.579 234.515 148.54 234.232 148.56 233.951C148.54 233.669 148.579 233.386 148.673 233.119C148.768 232.853 148.916 232.609 149.109 232.402C149.301 232.195 149.535 232.031 149.794 231.918C150.053 231.805 150.332 231.747 150.615 231.747C150.898 231.747 151.177 231.805 151.436 231.918C151.696 232.031 151.929 232.195 152.122 232.402C152.314 232.609 152.462 232.853 152.557 233.119C152.651 233.386 152.69 233.669 152.67 233.951Z" fill="white"/>
<path opacity="0.2" d="M159.05 233.981C159.021 234.383 158.874 234.767 158.627 235.087C158.381 235.406 158.047 235.647 157.665 235.778C157.284 235.909 156.872 235.925 156.482 235.825C156.091 235.724 155.739 235.511 155.468 235.212C155.198 234.913 155.021 234.541 154.959 234.142C154.898 233.744 154.955 233.336 155.124 232.969C155.292 232.603 155.565 232.294 155.907 232.081C156.249 231.868 156.647 231.76 157.05 231.77C157.606 231.804 158.127 232.054 158.501 232.467C158.875 232.881 159.072 233.424 159.05 233.981Z" fill="white"/>
<path opacity="0.2" d="M165.42 234.01C165.391 234.413 165.244 234.797 164.997 235.117C164.751 235.436 164.417 235.677 164.035 235.808C163.654 235.939 163.242 235.955 162.852 235.855C162.461 235.754 162.109 235.541 161.838 235.242C161.568 234.943 161.391 234.571 161.329 234.172C161.268 233.774 161.325 233.366 161.494 232.999C161.662 232.633 161.935 232.324 162.277 232.111C162.619 231.898 163.017 231.79 163.42 231.8C163.976 231.834 164.497 232.084 164.871 232.497C165.245 232.91 165.442 233.454 165.42 234.01Z" fill="white"/>
<path opacity="0.2" d="M171.79 234.03C171.762 234.433 171.617 234.819 171.372 235.14C171.127 235.461 170.793 235.703 170.412 235.835C170.03 235.968 169.618 235.986 169.227 235.886C168.836 235.787 168.482 235.574 168.211 235.275C167.939 234.977 167.761 234.605 167.699 234.206C167.637 233.807 167.694 233.398 167.862 233.031C168.031 232.664 168.303 232.355 168.646 232.141C168.989 231.928 169.386 231.82 169.79 231.83C170.344 231.864 170.864 232.113 171.237 232.524C171.611 232.935 171.809 233.475 171.79 234.03Z" fill="white"/>
<path opacity="0.2" d="M178.17 234.06C178.143 234.461 177.999 234.845 177.756 235.165C177.513 235.485 177.182 235.727 176.804 235.862C176.425 235.996 176.016 236.017 175.626 235.922C175.235 235.826 174.882 235.619 174.608 235.325C174.334 235.031 174.152 234.663 174.084 234.267C174.017 233.872 174.066 233.464 174.227 233.096C174.388 232.728 174.652 232.415 174.989 232.195C175.325 231.976 175.718 231.859 176.12 231.86C176.683 231.881 177.215 232.125 177.6 232.537C177.984 232.949 178.189 233.497 178.17 234.06Z" fill="white"/>
<path opacity="0.2" d="M184.54 234.09C184.56 234.372 184.521 234.655 184.427 234.922C184.332 235.188 184.184 235.432 183.992 235.639C183.799 235.846 183.566 236.01 183.306 236.123C183.047 236.236 182.768 236.294 182.485 236.294C182.202 236.294 181.923 236.236 181.664 236.123C181.405 236.01 181.171 235.846 180.979 235.639C180.786 235.432 180.638 235.188 180.543 234.922C180.449 234.655 180.41 234.372 180.43 234.09C180.41 233.808 180.449 233.526 180.543 233.259C180.638 232.993 180.786 232.749 180.979 232.542C181.171 232.335 181.405 232.17 181.664 232.058C181.923 231.945 182.202 231.887 182.485 231.887C182.768 231.887 183.047 231.945 183.306 232.058C183.566 232.17 183.799 232.335 183.992 232.542C184.184 232.749 184.332 232.993 184.427 233.259C184.521 233.526 184.56 233.808 184.54 234.09Z" fill="white"/>
<path opacity="0.2" d="M190.91 234.12C190.883 234.521 190.739 234.905 190.496 235.225C190.253 235.545 189.922 235.787 189.544 235.922C189.165 236.056 188.756 236.077 188.366 235.981C187.975 235.886 187.622 235.679 187.348 235.385C187.074 235.091 186.892 234.723 186.824 234.327C186.757 233.931 186.806 233.524 186.967 233.156C187.128 232.788 187.392 232.475 187.729 232.255C188.065 232.036 188.458 231.919 188.86 231.92C189.423 231.941 189.955 232.185 190.34 232.597C190.724 233.009 190.929 233.557 190.91 234.12Z" fill="white"/>
<path opacity="0.2" d="M197.28 234.15C197.252 234.553 197.107 234.939 196.862 235.26C196.617 235.581 196.283 235.823 195.902 235.955C195.52 236.088 195.108 236.106 194.717 236.006C194.326 235.907 193.972 235.694 193.701 235.395C193.429 235.097 193.251 234.725 193.189 234.326C193.127 233.927 193.184 233.518 193.352 233.151C193.521 232.784 193.793 232.475 194.136 232.261C194.479 232.048 194.876 231.94 195.28 231.95C195.834 231.984 196.354 232.233 196.727 232.644C197.101 233.055 197.299 233.595 197.28 234.15Z" fill="white"/>
</g>
<path d="M188.23 89.7905C188.925 89.4846 189.514 88.9811 189.925 88.3428C190.336 87.7045 190.55 86.9595 190.54 86.2005C190.566 85.7071 190.491 85.2136 190.32 84.75C190.149 84.2865 189.886 83.8626 189.546 83.5042C189.205 83.1458 188.796 82.8604 188.342 82.6654C187.888 82.4703 187.399 82.3698 186.905 82.3698C186.411 82.3698 185.922 82.4703 185.468 82.6654C185.014 82.8604 184.605 83.1458 184.265 83.5042C183.925 83.8626 183.661 84.2865 183.49 84.75C183.319 85.2136 183.244 85.7071 183.27 86.2005C183.255 86.9671 183.467 87.721 183.88 88.367C184.293 89.0131 184.888 89.5223 185.59 89.8305C179.99 90.6705 180.24 96.7505 180.24 96.7505L193.48 96.8105C193.48 96.8105 193.79 90.6205 188.23 89.7905Z" fill="#FF610A"/>
<path opacity="0.1" d="M188.23 89.7905C188.925 89.4846 189.514 88.9811 189.925 88.3428C190.336 87.7045 190.55 86.9595 190.54 86.2005C190.566 85.7071 190.491 85.2136 190.32 84.75C190.149 84.2865 189.886 83.8626 189.546 83.5042C189.205 83.1458 188.796 82.8604 188.342 82.6654C187.888 82.4703 187.399 82.3698 186.905 82.3698C186.411 82.3698 185.922 82.4703 185.468 82.6654C185.014 82.8604 184.605 83.1458 184.265 83.5042C183.925 83.8626 183.661 84.2865 183.49 84.75C183.319 85.2136 183.244 85.7071 183.27 86.2005C183.255 86.9671 183.467 87.721 183.88 88.367C184.293 89.0131 184.888 89.5223 185.59 89.8305C179.99 90.6705 180.24 96.7505 180.24 96.7505L193.48 96.8105C193.48 96.8105 193.79 90.6205 188.23 89.7905Z" fill="black"/>
<path d="M209.745 100.732L162.555 100.518L162.529 106.158L209.719 106.372L209.745 100.732Z" fill="#FF610A"/>
<path opacity="0.2" d="M209.745 100.732L162.555 100.518L162.529 106.158L209.719 106.372L209.745 100.732Z" fill="white"/>
<path d="M36.26 129.961H35.79L34.43 130.061C33.694 130.105 32.9622 130.202 32.24 130.351C31.7723 130.416 31.3083 130.506 30.85 130.621L29.3 131.051C26.6619 131.86 24.1727 133.093 21.93 134.701C18.9669 136.851 16.4927 139.605 14.67 142.781C13.5988 144.611 12.7462 146.561 12.13 148.591C11.4825 150.796 11.1097 153.073 11.02 155.371C10.9604 156.577 10.9805 157.786 11.08 158.991C11.08 159.601 11.25 160.211 11.33 160.831C11.3973 161.456 11.5143 162.074 11.68 162.681C12.5792 166.693 14.4038 170.44 17.0081 173.623C19.6125 176.805 22.9245 179.335 26.68 181.011C29.3981 182.183 32.3115 182.838 35.27 182.941C38.3258 183.109 41.3845 182.67 44.27 181.651L45.15 181.321H45.27L45.37 181.381L57.98 187.781L57.61 188.101C56.26 183.921 54.96 179.871 53.7 175.981V175.831L53.81 175.721C56.869 172.639 59.1399 168.866 60.43 164.721C61.5985 160.931 61.9396 156.934 61.43 153.001C60.9768 149.505 59.8529 146.13 58.12 143.061C56.6263 140.424 54.6994 138.057 52.42 136.061C50.5395 134.48 48.4581 133.155 46.23 132.121C44.5441 131.393 42.7883 130.841 40.99 130.471L38.99 130.141L37.54 130.031L36.66 129.971H36.36C36.4597 129.959 36.5603 129.959 36.66 129.971H37.55L39 130.031L41 130.321C42.8207 130.663 44.6005 131.196 46.31 131.911C48.5764 132.933 50.6953 134.255 52.61 135.841C54.9313 137.829 56.8991 140.195 58.43 142.841C60.2121 145.943 61.3705 149.364 61.84 152.911C62.3919 156.904 62.0746 160.97 60.91 164.831C59.6115 169.062 57.3055 172.916 54.19 176.061L54.25 175.801C55.51 179.691 56.82 183.741 58.18 187.911L58.37 188.521L57.8 188.231L45.19 181.841H45.41L44.51 182.171C41.569 183.205 38.4536 183.654 35.34 183.491C32.3177 183.375 29.3434 182.697 26.57 181.491C21.2797 179.225 16.8782 175.287 14.04 170.281C12.7339 167.968 11.7801 165.474 11.21 162.881C11.0539 162.258 10.937 161.627 10.86 160.991C10.78 160.361 10.65 159.741 10.62 159.121C10.3494 155.562 10.7255 151.985 11.73 148.561C12.3616 146.503 13.2379 144.529 14.34 142.681C16.2061 139.476 18.7319 136.705 21.75 134.551C24.0297 132.939 26.5606 131.715 29.24 130.931L30.81 130.531C31.2721 130.423 31.7394 130.34 32.21 130.281C32.9397 130.145 33.6784 130.065 34.42 130.041L35.79 129.991C35.9458 129.97 36.1028 129.96 36.26 129.961Z" fill="#FF610A"/>
<path d="M41.96 153.28H40.11L36.11 147.66V143.97C36.11 143.97 33.25 143.79 33.59 148.62C33.93 153.45 33.59 152.22 33.59 152.22C33.59 152.22 27.52 152.22 27.02 152.77C26.52 153.32 26.49 159.18 26.42 162.45C26.3817 163.239 26.6079 164.017 27.0626 164.662C27.5174 165.307 28.1747 165.782 28.93 166.01C29.1417 166.069 29.3603 166.099 29.58 166.1C31.1 166.1 38.83 164.87 38.83 164.87H42.02L41.96 153.28Z" fill="#FF610A"/>
<path d="M47.25 152.291L46.11 164.931H42.95V152.551L47.25 152.291Z" fill="#FF610A"/>
<path d="M84.94 409.621V401.071L69.61 400.961L69.48 413.891L70.43 413.961C74.66 414.231 91.95 414.631 94.79 413.751C97.95 412.771 84.94 409.621 84.94 409.621Z" fill="#FF610A"/>
<path d="M95.15 412.951C95.15 413.091 89.41 413.211 82.34 413.211C75.27 413.211 69.53 413.091 69.53 412.951C69.53 412.811 75.27 412.691 82.34 412.691C89.41 412.691 95.15 412.811 95.15 412.951Z" fill="#263238"/>
<path d="M85.21 411.371C85.08 411.301 85.21 410.851 85.52 410.371C85.83 409.891 86.25 409.691 86.35 409.791C86.45 409.891 86.24 410.271 85.94 410.681C85.64 411.091 85.34 411.441 85.21 411.371Z" fill="#263238"/>
<path d="M86.19 411.931C86.05 411.931 86.12 411.371 86.42 410.841C86.72 410.311 87.12 409.991 87.23 410.071C87.34 410.151 87.16 410.601 86.88 411.071C86.6 411.541 86.32 411.981 86.19 411.931Z" fill="#263238"/>
<path d="M74.15 412.911C74.09 412.911 73.86 412.731 73.53 412.351C73.1272 411.862 72.6784 411.413 72.19 411.011C71.7097 410.627 71.1375 410.375 70.53 410.281C70.06 410.221 69.76 410.281 69.73 410.221C69.7 410.161 69.99 409.951 70.54 409.911C71.2658 409.895 71.9739 410.136 72.54 410.591C73.0704 411.023 73.5177 411.548 73.86 412.141C74.09 412.581 74.21 412.871 74.15 412.911Z" fill="#263238"/>
<path d="M85.26 409.761C85.33 409.881 85.07 410.181 84.63 410.341C84.19 410.501 83.8 410.441 83.78 410.341C83.76 410.241 84.07 410.031 84.45 409.891C84.83 409.751 85.18 409.641 85.26 409.761Z" fill="#263238"/>
<path d="M85.02 408.931C85.02 409.081 84.62 409.201 84.1 409.211C83.58 409.221 83.17 409.101 83.18 408.961C83.19 408.821 83.6 408.691 84.1 408.681C84.6 408.671 85 408.791 85.02 408.931Z" fill="#263238"/>
<path d="M122.69 409.621V401.071L107.36 400.961L107.23 413.761L108.18 413.831C112.41 414.101 129.71 414.631 132.54 413.751C135.7 412.771 122.69 409.621 122.69 409.621Z" fill="#FF610A"/>
<path d="M132.9 412.971C132.9 413.111 127.17 413.231 120.09 413.231C113.01 413.231 107.29 413.111 107.29 412.971C107.29 412.831 113.02 412.711 120.09 412.711C127.16 412.711 132.9 412.831 132.9 412.971Z" fill="#263238"/>
<path d="M122.96 411.371C122.84 411.301 122.96 410.851 123.27 410.371C123.58 409.891 124 409.691 124.1 409.791C124.2 409.891 123.99 410.271 123.69 410.681C123.39 411.091 123.09 411.441 122.96 411.371Z" fill="#263238"/>
<path d="M123.94 411.931C123.81 411.931 123.87 411.371 124.18 410.841C124.49 410.311 124.88 409.991 124.99 410.071C125.1 410.151 124.91 410.601 124.63 411.071C124.35 411.541 124.08 411.981 123.94 411.931Z" fill="#263238"/>
<path d="M111.9 412.911C111.84 412.911 111.62 412.731 111.28 412.351C110.877 411.862 110.428 411.413 109.94 411.011C109.46 410.627 108.887 410.375 108.28 410.281C107.82 410.221 107.51 410.281 107.48 410.221C107.45 410.161 107.74 409.951 108.29 409.911C109.016 409.895 109.724 410.136 110.29 410.591C110.823 411.02 111.271 411.546 111.61 412.141C111.84 412.581 111.96 412.871 111.9 412.911Z" fill="#263238"/>
<path d="M123.01 409.761C123.08 409.881 122.82 410.181 122.38 410.341C121.94 410.501 121.55 410.441 121.53 410.341C121.51 410.241 121.82 410.031 122.2 409.891C122.58 409.751 122.93 409.641 123.01 409.761Z" fill="#263238"/>
<path d="M122.79 408.931C122.79 409.081 122.39 409.201 121.87 409.211C121.35 409.221 120.95 409.101 120.96 408.961C120.97 408.821 121.37 408.691 121.87 408.681C122.37 408.671 122.79 408.791 122.79 408.931Z" fill="#263238"/>
<path d="M179.17 155.721C178.77 155.311 177.78 155.511 177.78 155.511C177.879 154.935 177.879 154.346 177.78 153.771C177.6 153.211 176.34 153.321 176.34 153.321C176.282 152.849 176.282 152.372 176.34 151.901C176.35 151.796 176.328 151.691 176.276 151.6C176.224 151.508 176.145 151.435 176.05 151.391C175.454 151.148 174.814 151.032 174.17 151.051C173.4 150.501 176.52 146.131 177.68 144.731C178.84 143.331 178.63 142.241 177.6 142.241C176.89 142.241 173.25 146.441 172.13 147.851C171.01 149.261 168.04 153.181 167.94 150.051C167.84 146.921 166.58 144.561 165.79 144.161C165 143.761 164.16 144.701 164.59 145.571C164.968 146.559 165.203 147.596 165.29 148.651C165.399 149.491 165.361 150.343 165.18 151.171C164.848 152.71 164.397 154.221 163.83 155.691H163.75C163.75 155.691 141.93 176.621 140.35 178.111C138.94 179.451 110.58 176.521 104.89 175.921C102.956 175.638 101.004 175.504 99.05 175.521C96.58 175.631 96.14 175.981 93.68 176.011C87.4674 176.08 81.2693 176.625 75.14 177.641C72.3646 178.112 69.7722 179.337 67.6455 181.182C65.5188 183.027 63.9395 185.42 63.08 188.101C57.35 206.001 44.37 248.371 42.08 272.171C40.3495 275.309 38.7873 278.537 37.4 281.841C35.79 286.221 36.18 286.371 36.72 286.471C38.18 286.741 39.84 278.881 40.46 280.781C41.08 282.681 37.31 290.151 38.84 290.371C40.84 290.651 42.43 282.371 42.62 281.711C42.81 281.051 43.8 281.261 43.62 281.881C43.33 282.761 40.52 292.091 42.48 292.391C43.56 292.551 43.68 290.581 43.68 290.581C43.68 290.581 45.68 281.651 46.59 281.831C47.5 282.011 46.53 287.281 46.07 289.041C45.61 290.801 46.25 291.691 47.19 291.261C47.83 290.961 49.36 285.611 49.78 283.871C50.2 282.131 51.25 277.311 52.66 280.101C54.07 282.891 56.21 284.511 57.09 284.551C57.2883 284.528 57.4752 284.446 57.6267 284.316C57.7782 284.186 57.8873 284.014 57.94 283.821C57.9927 283.629 57.9866 283.425 57.9224 283.236C57.8583 283.047 57.739 282.881 57.58 282.761C56.8231 282.021 56.1735 281.18 55.65 280.261C55.1835 279.544 54.8451 278.753 54.65 277.921C54.247 276.262 54.0125 274.566 53.95 272.861L53.79 271.861C56.03 260.771 62.48 228.221 71.79 207.431L75.61 215.291L77.27 221.111L67.09 246.241L110.51 245.671L104.03 220.731L111.9 194.731C120.41 194.921 142.26 195.241 145.9 193.591C150.48 191.591 174.17 161.671 174.17 161.671C175.714 160.471 177.193 159.189 178.6 157.831C178.6 157.831 180.04 156.621 179.17 155.721Z" fill="#FFBE9D"/>
<path d="M65.18 227.671C66.44 223.371 72.91 202.111 72.91 202.111C72.91 202.111 76.09 219.441 75.25 221.531C74.4773 223.32 73.5645 225.045 72.52 226.691C65.18 237.861 66.14 243.451 66.14 243.451L110.49 242.101C110.59 235.901 106.92 221.481 106.16 219.181C105.4 216.881 107.93 209.351 107.93 209.351C107.93 209.351 112.93 204.261 112.75 201.641C112.655 199.287 112.364 196.946 111.88 194.641L138.88 195.641L138.03 177.341L99.25 173.461C97.9 177.271 85.69 175.401 85.69 175.401C72.51 175.841 71.69 178.261 66.21 182.521C60.73 186.781 51.66 223.341 51.66 223.341L65.18 227.671Z" fill="#FF610A"/>
<path d="M91.4 223.341C90.6314 223.478 89.8486 223.518 89.07 223.461C87.62 223.461 85.63 223.361 83.44 223.141C81.25 222.921 79.27 222.611 77.86 222.331C77.0825 222.23 76.3202 222.036 75.59 221.751C76.3718 221.751 77.1519 221.825 77.92 221.971C79.34 222.151 81.31 222.401 83.49 222.621C85.67 222.841 87.65 222.991 89.08 223.091C89.8595 223.1 90.6363 223.184 91.4 223.341Z" fill="#263238"/>
<path d="M94.44 219.571C93.6712 219.947 92.8582 220.226 92.02 220.401C88.0303 221.449 83.9142 221.937 79.79 221.851C78.9366 221.878 78.0831 221.798 77.25 221.611C78.0923 221.504 78.9413 221.461 79.79 221.481C81.36 221.431 83.52 221.321 85.9 221.041C88.28 220.761 90.4 220.361 91.9 220.041C92.7331 219.818 93.5824 219.661 94.44 219.571Z" fill="#263238"/>
<path d="M109.36 202.751C109.34 203.513 109.236 204.271 109.05 205.011C108.79 206.401 108.39 208.301 107.88 210.381C107.37 212.461 106.88 214.381 106.44 215.681C106.263 216.425 106.001 217.146 105.66 217.831C105.716 217.071 105.857 216.319 106.08 215.591C106.46 214.031 106.89 212.231 107.37 210.261C107.85 208.291 108.31 206.491 108.69 204.931C108.825 204.18 109.05 203.448 109.36 202.751Z" fill="#263238"/>
<path d="M65.65 225.121C63.3365 224.763 61.0534 224.232 58.82 223.531C56.5379 222.997 54.2984 222.295 52.12 221.431C54.4323 221.794 56.7151 222.325 58.95 223.021C61.2326 223.552 63.4722 224.254 65.65 225.121Z" fill="#263238"/>
<path d="M112.36 194.421C111.983 194.486 111.597 194.486 111.22 194.421C110.175 194.313 109.15 194.068 108.17 193.691C106.534 193.076 105.045 192.126 103.798 190.901C102.551 189.677 101.574 188.205 100.93 186.581C100.218 184.794 99.9138 182.87 100.04 180.951C100.085 179.367 100.558 177.826 101.41 176.491C102.009 175.591 102.904 174.93 103.94 174.621C104.217 174.544 104.503 174.507 104.79 174.511C104.99 174.511 105.09 174.511 105.09 174.511C105.09 174.511 104.67 174.511 104 174.781C103.05 175.132 102.244 175.79 101.71 176.651C100.35 178.791 99.97 182.701 101.42 186.351C102.095 188.072 103.151 189.617 104.51 190.871C105.623 191.896 106.905 192.722 108.3 193.311C109.609 193.828 110.97 194.2 112.36 194.421Z" fill="#263238"/>
<path d="M135.67 195.281C135.42 192.214 135.34 189.136 135.43 186.061C135.352 182.988 135.445 179.913 135.71 176.851C135.96 179.914 136.04 182.989 135.95 186.061C136.034 189.137 135.941 192.215 135.67 195.281Z" fill="#263238"/>
<path d="M98.99 174.581C99.1 172.351 99.33 169.831 99.33 169.831C99.33 169.831 104.85 169.221 105.18 163.521C105.51 157.821 105.18 144.671 105.18 144.671L95.18 139.551L84.08 148.281L85.79 176.781L95.97 177.431C96.7481 177.452 97.503 177.164 98.0692 176.63C98.6353 176.096 98.9665 175.359 98.99 174.581Z" fill="#FFBE9D"/>
<path d="M99.98 159.011C99.98 159.011 99.98 159.121 99.89 159.251C99.8156 159.345 99.7193 159.42 99.6096 159.468C99.4998 159.517 99.3798 159.539 99.26 159.531C98.62 159.531 98 158.791 97.78 157.931C97.6754 157.514 97.6754 157.077 97.78 156.661C97.8005 156.479 97.8661 156.305 97.9709 156.154C98.0757 156.004 98.2163 155.883 98.38 155.801C98.5145 155.745 98.6655 155.745 98.8 155.801C98.8997 155.85 98.9805 155.931 99.03 156.031C99.1 156.201 99.03 156.311 99.03 156.301C99.03 156.291 99.03 156.201 98.93 156.101C98.8777 156.029 98.8009 155.979 98.7141 155.961C98.6274 155.942 98.5369 155.956 98.46 156.001C98.3373 156.075 98.2354 156.179 98.1637 156.303C98.092 156.427 98.0529 156.567 98.05 156.711C97.9658 157.083 97.9658 157.469 98.05 157.841C98.25 158.621 98.79 159.251 99.27 159.311C99.3639 159.323 99.4594 159.317 99.5506 159.291C99.6418 159.265 99.7267 159.221 99.8 159.161C99.92 159.081 99.96 159.001 99.98 159.011Z" fill="#EB996E"/>
<path d="M108.61 141.591C107.84 138.971 105.05 137.671 102.51 136.951C98.64 135.851 94.46 135.371 90.68 136.761C86.9 138.151 82.36 140.591 82.36 144.761C80.13 144.581 78.85 146.531 77.97 148.951C77.4074 150.425 77.0702 151.976 76.97 153.551C76.69 159.011 75.16 166.551 71.62 170.551C69.62 172.781 66.85 174.321 65.71 177.101C64.71 179.511 65.23 182.371 64.3 184.811C63.47 186.961 61.64 188.491 60.3 190.361C58.9348 192.482 58.1314 194.916 57.9652 197.433C57.799 199.95 58.2756 202.468 59.35 204.751C60.4322 206.974 61.9558 208.955 63.828 210.571C65.7002 212.187 67.8819 213.405 70.24 214.151C74.911 215.572 79.8921 215.62 84.59 214.291C88.1158 213.448 91.4047 211.817 94.21 209.521C97.0803 207.177 99.0518 203.912 99.79 200.281C100.5 196.201 99.36 192.051 98.51 187.991C95.85 175.161 96.61 174.491 99.97 162.581C100.05 162.371 100.09 162.151 100.15 161.941C100.21 161.731 100.24 161.631 100.28 161.471C100.375 161 100.426 160.521 100.43 160.041C99.9392 160.223 99.4066 160.262 98.8946 160.152C98.3827 160.042 97.9127 159.788 97.54 159.421C97.1664 159.028 96.906 158.543 96.7862 158.014C96.6665 157.486 96.692 156.935 96.86 156.421C97.0959 155.857 97.4475 155.35 97.8919 154.932C98.3364 154.513 98.8638 154.192 99.44 153.991C100.55 153.531 101.74 153.291 102.83 152.781C105.14 151.681 106.74 149.401 107.83 147.011C108.726 145.354 109.003 143.433 108.61 141.591Z" fill="#263238"/>
<path d="M100.38 159.281C100.591 159.593 100.766 159.928 100.9 160.281C101.2 160.911 101.6 161.801 102.04 162.831L102.12 163.021H101.91L100.91 163.111C100.22 163.111 99.64 163.241 98.96 163.231C98.9008 163.217 98.8459 163.189 98.8004 163.149C98.755 163.109 98.7204 163.058 98.7 163.001C98.6702 162.91 98.6702 162.811 98.7 162.721C98.7231 162.586 98.7532 162.452 98.79 162.321L98.97 161.611C99.0604 161.137 99.2012 160.674 99.39 160.231C99.3714 160.713 99.301 161.193 99.18 161.661L99.04 162.371C98.99 162.611 98.9 162.981 99.04 162.951C99.54 162.951 100.25 162.841 100.91 162.801L101.91 162.711L101.78 162.931C101.35 161.931 100.99 160.991 100.78 160.341C100.596 160.009 100.461 159.651 100.38 159.281Z" fill="#FF610A"/>
<path d="M66.14 243.451L110.49 242.101L129.79 317.441L126.24 403.861H102.79L105.66 319.281L88.51 266.831L91.15 407.211L67.45 407.561L64.96 275.611C64.85 271.941 63.65 263.671 64.1 260.031L66.14 243.451Z" fill="#263238"/>
<path d="M94.41 267.901C93.6841 267.946 92.9553 267.903 92.24 267.771C90.9 267.611 89.07 267.331 87.06 266.931C85.05 266.531 83.25 266.071 81.95 265.701C81.2551 265.548 80.5828 265.306 79.95 264.981C79.95 264.831 83.21 265.611 87.21 266.421C91.21 267.231 94.43 267.751 94.41 267.901Z" fill="#455A64"/>
<path d="M126 399.121C126 399.261 120.69 399.381 114.14 399.381C107.59 399.381 102.27 399.261 102.27 399.121C102.27 398.981 107.58 398.861 114.14 398.861C120.7 398.861 126 398.971 126 399.121Z" fill="#455A64"/>
<path d="M90.94 403.561C90.94 403.711 85.78 403.821 79.42 403.821C73.06 403.821 67.91 403.711 67.91 403.561C67.91 403.411 73.07 403.301 79.42 403.301C85.77 403.301 90.94 403.421 90.94 403.561Z" fill="#455A64"/>
<path d="M87.88 403.201C87.74 403.201 87.12 372.531 86.49 334.701C85.86 296.871 85.49 266.181 85.62 266.181C85.75 266.181 86.39 296.841 87.01 334.691C87.63 372.541 88.03 403.201 87.88 403.201Z" fill="#455A64"/>
<path d="M122.85 399.121C122.839 398.984 122.839 398.847 122.85 398.711V397.511C122.85 396.431 122.93 394.881 122.99 392.911C123.13 388.911 123.33 383.101 123.58 375.981C124.12 361.661 124.88 341.921 125.71 320.131C125.71 319.921 125.71 319.721 125.71 319.541V319.611C120.46 298.611 115.71 279.551 112.26 265.761L108.26 249.451C107.8 247.541 107.45 246.051 107.2 245.011C107.08 244.521 107 244.141 106.93 243.851C106.891 243.72 106.868 243.586 106.86 243.451C106.912 243.577 106.952 243.707 106.98 243.841C107.06 244.121 107.16 244.501 107.3 244.981C107.57 245.981 107.96 247.501 108.46 249.401C109.46 253.261 110.87 258.821 112.63 265.671C116.11 279.451 120.91 298.461 126.23 319.491V319.561C126.23 319.741 126.23 319.951 126.23 320.151C125.34 341.941 124.53 361.671 123.94 375.991C123.63 383.121 123.37 388.891 123.19 392.911C123.09 394.911 123.01 396.431 122.96 397.511C122.96 398.021 122.9 398.421 122.89 398.711C122.891 398.848 122.878 398.986 122.85 399.121Z" fill="#455A64"/>
<path d="M115.2 317.781C113.516 318.334 111.78 318.72 110.02 318.931C107.86 319.301 106.02 319.561 105.19 319.601V319.401C105.46 319.481 105.6 319.531 105.6 319.571C105.6 319.611 105.43 319.571 105.15 319.571H104.55L105.15 319.391C105.93 319.161 107.77 318.781 109.93 318.391C111.662 318.015 113.428 317.81 115.2 317.781Z" fill="#455A64"/>
<path d="M114.79 320.651C113.23 320.722 111.667 320.652 110.12 320.441C108.558 320.409 107.002 320.238 105.47 319.931C108.595 319.676 111.741 319.919 114.79 320.651Z" fill="#455A64"/>
<path opacity="0.2" d="M65.95 245.041C66.4752 245.715 67.1368 246.271 67.8915 246.673C68.6462 247.074 69.4771 247.312 70.33 247.371C72.1162 247.582 73.9229 247.549 75.7 247.271C87.15 246.001 99.28 244.831 110.49 242.101C95.98 242.911 80.65 242.641 66.14 243.451L65.99 244.691" fill="black"/>
<g opacity="0.2">
<path opacity="0.2" d="M80.9 265.491L89.08 297.231L88.51 266.831L80.9 265.491Z" fill="black"/>
</g>
</svg>
